<svg width="65" height="63" viewBox="0 0 65 63" fill="none" xmlns="http://www.w3.org/2000/svg">
<path d="M13.4432 36.7558H21.1399C19.6888 34.3046 20.5435 31.1664 23.0492 29.7466C25.5549 28.3269 28.7628 29.1632 30.2141 31.6143C31.1553 33.2045 31.1553 35.1657 30.2141 36.7558H37.9108V28.4885C37.9108 28.0163 38.3021 27.6337 38.7846 27.6337C39.0597 27.6337 39.3187 27.7603 39.4836 27.9757C40.8024 29.6961 43.2972 30.0452 45.0561 28.7551C46.815 27.465 47.1718 25.0244 45.8531 23.3039C44.5341 21.5833 42.0395 21.2343 40.2806 22.5243C39.9786 22.7459 39.7103 23.0083 39.4836 23.3039C39.1941 23.6814 38.6464 23.758 38.2604 23.4748C38.0404 23.3134 37.9108 23.0601 37.9108 22.7909V13.6747C37.9108 13.2028 38.3021 12.82 38.7846 12.82H64.1262C64.6088 12.82 65 13.2028 65 13.6747V61.5463C65 62.0185 64.6088 62.4013 64.1262 62.4013H13.4737C12.9911 62.4013 12.6 62.0185 12.6 61.5463L12.5694 37.6105C12.5694 37.1386 12.9605 36.7558 13.4432 36.7558ZM63.2523 14.5297H39.6585V20.8777C42.3482 19.2484 45.8786 20.0607 47.5441 22.6917C49.2096 25.3228 48.3794 28.7766 45.6899 30.4059C43.8422 31.5253 41.5061 31.5253 39.6585 30.4059V36.7558H48.6757C49.1583 36.7558 49.5496 37.1386 49.5496 37.6105C49.5496 37.8797 49.42 38.133 49.2001 38.2944C48.1882 39.0067 47.5896 40.1526 47.5922 41.3721C47.5922 43.5437 49.3919 45.3043 51.6118 45.3043C53.8318 45.3043 55.6315 43.5437 55.6315 41.3721C55.6338 40.1524 55.0348 39.0067 54.0227 38.2944C53.6367 38.0112 53.5584 37.4754 53.8481 37.0977C54.013 36.8825 54.272 36.7558 54.5471 36.7558H63.2523V14.5297ZM39.6585 60.6916H63.2523V38.4655H56.5237C57.0834 39.3359 57.3795 40.3437 57.3774 41.3721C57.3774 44.488 54.7953 47.014 51.6101 47.014C48.4249 47.014 45.8426 44.488 45.8426 41.3721C45.8404 40.3437 46.1361 39.3359 46.6955 38.4655H39.6585V46.6498C39.6587 47.1219 39.2678 47.5049 38.7851 47.5051C38.5048 47.5053 38.2413 47.3738 38.0769 47.1517C37.6027 46.5002 36.9267 46.0153 36.1491 45.7684C34.0829 45.0356 31.8007 46.0801 31.0515 48.1012C30.3023 50.1226 31.3701 52.3552 33.4362 53.0881C33.5199 53.1178 33.6045 53.1448 33.6901 53.1689L33.7626 53.1979C33.837 53.221 33.9112 53.2493 33.9863 53.2834L34.0493 53.3073C34.1004 53.3117 34.1509 53.3203 34.2005 53.333C35.4367 53.6471 36.7509 53.3173 37.68 52.4602C37.7317 52.408 37.8016 52.3397 37.8786 52.2687C37.9423 52.2098 38.0148 52.1456 38.0611 52.0978C38.2259 51.8661 38.4962 51.7278 38.7846 51.7276C39.2672 51.7276 39.6585 52.1102 39.6585 52.5824V60.6916ZM14.3467 60.6916H37.9108V54.4161C36.684 55.1235 35.2236 55.3354 33.8396 55.0068C33.6584 54.9849 33.4815 54.936 33.3152 54.8624L33.0976 54.7768C30.0948 53.805 28.4655 50.6358 29.4589 47.698C30.4521 44.7604 33.6919 43.1666 36.695 44.1384C37.1185 44.2755 37.5242 44.4605 37.9039 44.6897V38.4655H28.2984C27.816 38.4655 27.4247 38.0827 27.4247 37.6105C27.4247 37.3415 27.5542 37.0882 27.7742 36.9267C29.3185 35.7936 29.6315 33.6504 28.4733 32.1395C27.3151 30.6288 25.1241 30.3226 23.5798 31.4556C22.0355 32.5888 21.7225 34.732 22.8807 36.2428C23.0794 36.5021 23.3149 36.7324 23.5798 36.9267C23.9658 37.2101 24.0441 37.7458 23.7546 38.1235C23.5895 38.3387 23.3305 38.4655 23.0556 38.4655H14.3169L14.3467 60.6916Z" fill="#404040"/>
<path d="M0.0663227 9.07487C0.155245 8.86569 0.325629 8.69961 0.539826 8.61326L21.7237 0.0647599C22.1698 -0.115183 22.6806 0.0927163 22.8646 0.529196C22.8648 0.529378 22.8648 0.529633 22.8649 0.529797L25.4942 6.78217C27.2704 4.55692 30.5542 4.16146 32.8289 5.89895C35.1038 7.63651 35.508 10.8489 33.7318 13.0744C33.1319 13.8259 32.3289 14.3986 31.4136 14.7272C30.6172 15.0173 29.7569 15.0972 28.9189 14.9588L31.592 21.1564C31.7792 21.5915 31.5704 22.0928 31.1256 22.2761C31.1226 22.2772 31.1196 22.2785 31.1166 22.2798L23.4967 25.3197C23.0497 25.4976 22.5398 25.2872 22.3579 24.8501C22.2554 24.6033 22.276 24.3241 22.414 24.0945C23.0029 23.1145 23.0359 21.907 22.5014 20.8974C21.678 18.9036 19.358 17.9401 17.3199 18.7457C15.2816 19.5512 14.2969 21.8207 15.1203 23.8146C15.1319 23.8427 15.1436 23.8704 15.1557 23.8979C15.4881 24.9938 16.3654 25.85 17.4864 26.1728C17.9552 26.2847 18.2425 26.7474 18.128 27.2061C18.0611 27.4743 17.8655 27.6945 17.6034 27.7969L9.93801 30.8573C9.49228 31.038 8.98112 30.831 8.79638 30.3948C8.79619 30.3944 8.796 30.3942 8.796 30.394L0.065384 9.72629C-0.0222335 9.51747 -0.0218541 9.28331 0.0663227 9.07487ZM10.0788 28.9561L15.2031 26.9044C14.4652 26.2621 13.8959 25.4559 13.5426 24.5537C12.4042 21.6657 13.8741 18.4218 16.826 17.3079C19.778 16.194 23.0942 17.6319 24.2329 20.5199C24.5481 21.3194 24.6717 22.1793 24.5942 23.0329L29.6363 21.0205L26.5061 13.7628C26.3189 13.3277 26.5279 12.8265 26.9729 12.6434C27.2387 12.534 27.543 12.5601 27.7855 12.7131C28.6673 13.3162 29.7916 13.4679 30.8072 13.1209C32.6185 12.4667 33.5448 10.5001 32.8761 8.72824C32.2074 6.95639 30.197 6.05024 28.3858 6.70437C27.3383 7.11788 26.5438 7.98033 26.2319 9.04241C26.0936 9.49486 25.6068 9.752 25.1443 9.61668C24.8917 9.54282 24.6866 9.36137 24.5864 9.12283L21.5777 1.96852L2.01143 9.86726L10.0788 28.9561Z" fill="#404040"/>
</svg>
