<svg width="65" height="62" viewBox="0 0 65 62" fill="none" xmlns="http://www.w3.org/2000/svg">
<path d="M7.50472 31.6269C3.36412 31.631 0.00411363 28.2777 1.58966e-06 24.1371C-0.00411045 19.9964 3.3492 16.6365 7.4898 16.6324C11.6304 16.6283 14.9904 19.9816 14.9945 24.1223C14.9952 24.8602 14.887 25.5944 14.6733 26.3009L23.1617 29.9176C24.7863 26.6513 28.0025 24.4743 31.6385 24.1796V14.9339C27.5275 14.4743 24.5676 10.7691 25.0273 6.65821C25.4869 2.54731 29.192 -0.412574 33.3029 0.0470464C37.4138 0.506597 40.3738 4.21167 39.9141 8.32265C39.5253 11.8001 36.7804 14.545 33.3029 14.9339V24.1796C36.9377 24.4755 40.1523 26.6524 41.7764 29.9176L50.2681 26.3009C49.0512 22.3244 51.2884 18.1143 55.2649 16.8973C59.2414 15.6804 63.4515 17.9176 64.6684 21.8942C65.8853 25.8706 63.6482 30.0807 59.6716 31.2976C56.3046 32.3279 52.6731 30.8873 50.928 27.8288L42.4072 31.4605C43.4327 34.7629 42.7462 38.3591 40.5764 41.0516L47.4212 47.8965C50.8774 45.5264 55.6005 46.4069 57.9704 49.863C60.3406 53.3192 59.46 58.0423 56.0039 60.4123C52.5477 62.7824 47.8246 61.9019 45.4545 58.4458C43.4459 55.5166 43.7378 51.5861 46.1571 48.9858L39.4279 42.2566C35.4847 45.8408 29.4633 45.8408 25.5202 42.2566L18.791 48.9858C21.5691 51.9882 21.3873 56.6742 18.3849 59.4524C15.3827 62.2306 10.6965 62.0489 7.91839 59.0464C5.14029 56.044 5.32204 51.358 8.32442 48.5798C10.8579 46.2355 14.6749 45.952 17.5269 47.8965L24.3717 41.0516C22.1995 38.3603 21.5106 34.764 22.5342 31.4605L14.0134 27.8312C12.6844 30.1751 10.199 31.6245 7.50472 31.6269ZM57.4367 29.9626C60.6539 29.9626 63.2621 27.3545 63.2621 24.1371C63.2621 20.9198 60.6539 18.3117 57.4367 18.3117C54.2194 18.3117 51.6113 20.9198 51.6113 24.1371C51.615 27.353 54.2209 29.9589 57.4367 29.9626ZM38.2961 7.49319C38.2961 4.27593 35.688 1.66776 32.4707 1.66776C29.2534 1.66776 26.6453 4.27593 26.6453 7.49319C26.6453 10.7105 29.2534 13.3186 32.4707 13.3186C35.6864 13.3149 38.2924 10.7089 38.2961 7.49319ZM51.6113 59.9217C54.8286 59.9217 57.4367 57.3135 57.4367 54.0963C57.4367 50.879 54.8286 48.2709 51.6113 48.2709C48.3941 48.2709 45.7858 50.879 45.7858 54.0963C45.7896 57.3121 48.3955 59.918 51.6113 59.9217ZM37.503 41.6707C37.2401 38.8915 34.7739 36.8515 31.9946 37.1146C29.5792 37.3431 27.6669 39.2553 27.4384 41.6707C30.4512 43.8133 34.4902 43.8133 37.503 41.6707ZM34.7851 33.1091C34.7846 31.8309 33.748 30.7951 32.4699 30.7956C31.1917 30.796 30.1559 31.8326 30.1563 33.1108C30.1569 34.3885 31.1929 35.4243 32.4707 35.4243C33.7485 35.4224 34.7837 34.3868 34.7851 33.1091ZM7.50472 54.0963C7.50472 57.3135 10.1128 59.9217 13.3301 59.9217C16.5475 59.9217 19.1555 57.3135 19.1555 54.0963C19.1555 50.879 16.5475 48.2709 13.3301 48.2709C10.1143 48.2746 7.50836 50.8805 7.50472 54.0963ZM25.992 40.3825C26.5259 38.4315 27.9076 36.8233 29.756 36.0018C28.1495 34.5025 28.0626 31.9849 29.562 30.3784C31.0611 28.772 33.5788 28.6849 35.1854 30.1842C36.7919 31.6834 36.8788 34.2012 35.3794 35.8077C35.3171 35.8745 35.2522 35.9393 35.1854 36.0018C37.0338 36.8233 38.4155 38.4315 38.9494 40.3825C42.1877 36.8044 41.9123 31.2787 38.3342 28.0404C34.7562 24.802 29.2304 25.0774 25.992 28.6554C22.9795 31.9841 22.9795 37.0539 25.992 40.3825ZM7.50472 18.3117C4.28745 18.3117 1.67936 20.9198 1.67936 24.1371C1.67936 27.3545 4.28745 29.9626 7.50472 29.9626C10.722 29.9626 13.3301 27.3545 13.3301 24.1371C13.3264 20.9214 10.7205 18.3154 7.50472 18.3117Z" fill="#404040"/>
</svg>
