<svg width="66" height="61" viewBox="0 0 66 61" fill="none" xmlns="http://www.w3.org/2000/svg">
<path d="M19.7494 19.1409C20.3039 18.5723 21.0614 18.252 21.8524 18.2516H28.2796C28.2975 18.25 28.3132 18.2394 28.3217 18.2236C28.2988 18.1427 28.2605 18.0493 28.2194 17.9345C27.5461 15.9856 27.2422 13.9265 27.3238 11.8642C27.2948 10.2811 28.455 8.931 30.0136 8.73371C31.6528 8.57086 33.1126 9.77835 33.2741 11.4307C33.2834 11.5271 33.2882 11.6238 33.2885 11.7207C33.2885 15.254 36.6493 17.713 38.0936 18.6061C38.4407 18.82 38.8396 18.9331 39.2464 18.9328H39.5781C39.8553 17.9338 40.7571 17.242 41.7862 17.239H47.8168V33.4592H41.7948C40.7653 33.4556 39.8634 32.7629 39.5867 31.7633H38.411C37.7436 31.8128 37.1188 32.1126 36.6598 32.6036C35.1832 33.8953 33.2729 34.5697 31.3193 34.4892H25.3031C23.736 34.5041 22.4178 33.3086 22.2671 31.7364C22.2409 31.4174 22.2642 31.0962 22.3359 30.7844C21.9871 30.6187 21.6713 30.3901 21.4041 30.1099C20.8471 29.5372 20.5481 28.7589 20.5772 27.9574C20.5891 27.6521 20.6462 27.3504 20.7464 27.0622C20.0047 26.4999 19.5664 25.6206 19.5611 24.6852C19.5613 24.2653 19.6475 23.8499 19.8144 23.4653C18.6121 22.3095 18.5669 20.3902 19.7134 19.1782C19.7253 19.1658 19.7373 19.1532 19.7494 19.1409ZM41.4038 31.1371C41.4068 31.354 41.5806 31.529 41.7957 31.532H45.9051V19.1689H41.7852C41.6027 19.171 41.445 19.2982 41.4028 19.4772L41.4038 31.1371ZM21.47 22.2724C21.9691 22.4457 22.2344 22.9942 22.0625 23.4973C22.0112 23.6474 21.9239 23.7824 21.8083 23.8902C21.5931 24.098 21.4718 24.3857 21.4729 24.6862C21.4798 25.1848 21.8268 25.6129 22.3102 25.719C22.8258 25.8333 23.1518 26.3473 23.0384 26.867C22.9983 27.0514 22.9052 27.2197 22.7709 27.3513C22.5917 27.5341 22.489 27.7793 22.4841 28.0364C22.4795 28.313 22.5864 28.5797 22.7805 28.7754C23.0372 29.0364 23.3912 29.1763 23.7555 29.1609C24.2834 29.1598 24.7122 29.5904 24.7131 30.1225C24.7136 30.3828 24.6095 30.6325 24.4245 30.8143C24.2286 31.0191 24.1361 31.303 24.1732 31.5851C24.2477 32.1535 24.7344 32.5745 25.3031 32.5621H31.3193C32.8473 32.6444 34.3454 32.1133 35.486 31.085C36.275 30.3185 37.3169 29.8725 38.4119 29.8323H39.4825V20.8618H39.2464C38.487 20.8619 37.7424 20.6505 37.0947 20.2509C34.9593 18.9309 31.3766 16.0673 31.3766 11.7227C31.3775 11.4189 31.2499 11.129 31.0259 10.9258C30.8001 10.7209 30.4994 10.6211 30.1971 10.6502C29.6227 10.7533 29.2122 11.2681 29.2355 11.8556C29.1575 13.6994 29.4238 15.5415 30.0202 17.2862C30.1367 17.5664 30.2129 17.862 30.2469 18.164C30.2488 18.2008 30.2488 18.2378 30.2469 18.2747C30.198 19.3359 29.3334 20.1726 28.2796 20.1786H21.8552C21.5733 20.1795 21.3037 20.2945 21.1068 20.4976C20.9029 20.7042 20.7902 20.9847 20.7942 21.2761C20.7854 21.7194 21.0569 22.1193 21.47 22.2714V22.2724Z" fill="#404040"/>
<path d="M4.22892 0.770081H62.7285C64.5156 0.788824 65.9598 2.24472 65.9785 4.04616V43.852C65.9933 45.6462 64.5623 47.1131 62.7822 47.128C62.7644 47.128 62.7464 47.128 62.7285 47.128H26.9788L13.9789 60.5212V47.2243H4.22892C2.44182 47.2056 0.997617 45.7498 0.978902 43.9483V4.14341C0.956082 2.30874 2.40898 0.800752 4.22892 0.770081ZM2.89073 43.9483C2.90981 44.6852 3.49783 45.278 4.22892 45.2973H15.8906V55.7999L25.6099 45.7819L26.172 45.2038H62.7285C63.4515 45.22 64.0506 44.6421 64.0667 43.9133C64.0671 43.8938 64.0671 43.8743 64.0667 43.8549V4.04714C64.0476 3.31018 63.4596 2.71733 62.7285 2.6981H4.22892C3.46438 2.72694 2.86647 3.37274 2.89073 4.14341V43.9483Z" fill="#404040"/>
</svg>
