<svg width="55" height="74" viewBox="0 0 55 74" fill="none" xmlns="http://www.w3.org/2000/svg">
<path d="M55 73.3333H-1.78814e-06V0H55V73.3333ZM53.1666 1.83333H1.83337V71.5H53.1666V1.83333Z" fill="#404040"/>
<path d="M45.8334 13.7501H9.16668V15.5833H45.8334V13.7501Z" fill="#404040"/>
<path d="M45.8334 21.0833H9.16668V22.9166H45.8334V21.0833Z" fill="#404040"/>
<path d="M45.8334 28.4167H9.16668V30.2501H45.8334V28.4167Z" fill="#404040"/>
<path d="M45.8334 35.7501H27.5001V37.5833H45.8334V35.7501Z" fill="#404040"/>
<path d="M27.5 54.0833H9.16662V55.9166H27.5V54.0833Z" fill="#404040"/>
<path d="M35.0231 48.8519L39.6458 53.4746L44.2685 48.8519L45.5647 50.1481L40.942 54.7708L45.5647 59.3935L44.2685 60.6897L39.6458 56.067L35.0231 60.6897L33.7269 59.3935L38.3496 54.7708L33.7269 50.1481L35.0231 48.8519Z" fill="#404040"/>
</svg>
