<svg width="65" height="56" viewBox="0 0 65 56" fill="none" xmlns="http://www.w3.org/2000/svg">
<path d="M4.01228 36.1914V30.4938C4.01228 26.642 10.1913 24.0741 17.6543 23.0309V18.4568C17.6543 17.1729 18.3765 15.4074 21.6667 13.7222V8.02474C21.6667 2.80865 32.821 0 43.3334 0C53.8456 0 65 2.80865 65 8.02474V14.4444C65 16.3703 63.4753 17.9753 60.9876 19.2592V24.8766C60.9876 24.8766 60.9876 24.8766 60.9876 24.9568C64.2778 26.642 65 28.4877 65 29.6914V36.1111C65 41.3272 53.8456 44.1359 43.3334 44.1359V47.3457C43.3334 52.5618 32.179 55.3704 21.6667 55.3704C11.1543 55.3704 2.20766e-06 52.5618 2.20766e-06 47.3457V40.9259C2.20766e-06 39.7222 0.722228 37.8766 4.01228 36.1914ZM1.60487 41.0062C1.60487 44.0555 9.87038 47.4259 21.6667 47.4259C31.0556 47.4259 38.1975 45.2592 40.7654 42.8518C35.8704 44.3766 30.8148 45.0988 25.7593 45.0185C15.9691 45.0185 5.53704 42.5309 4.25302 38.037C2.48762 38.9198 1.60487 39.9629 1.60487 41.0062ZM15.2469 48.6296V53.4444C16.2901 53.5248 17.3333 53.6852 18.4567 53.6852V48.8704C17.3333 48.8704 16.2901 48.7901 15.2469 48.6296ZM13.6419 48.4692C12.5185 48.3087 11.4752 48.1481 10.4321 47.9074V52.642C11.395 52.8827 12.5185 53.0433 13.6419 53.2037V48.4692ZM8.82709 47.5062C7.70371 47.2655 6.66043 46.8642 5.61725 46.4629V51.1173C6.66043 51.5988 7.70371 51.9198 8.82709 52.2407V47.5062ZM34.5062 52.2407C35.6296 51.9198 36.6728 51.5988 37.716 51.1173V46.4629C36.6728 46.8642 35.6296 47.1852 34.5062 47.5062V52.2407ZM32.9012 47.9074C31.858 48.1481 30.8148 48.3087 29.6913 48.4692V53.284C30.8148 53.1235 31.9382 52.8827 32.9012 52.7222V47.9074ZM28.0864 48.6296C27.0432 48.7099 25.9197 48.8704 24.8765 48.8704V53.6852C26 53.605 27.0432 53.5248 28.0864 53.4444V48.6296ZM47.3456 30.5741V30.8148C48.4691 30.6544 49.5926 30.4136 50.5556 30.2531V25.5185C49.5123 25.7592 48.4691 25.9198 47.3456 26.0803V30.5741ZM45.7408 36.9938V33.784C45.0185 34.4259 44.216 34.9877 43.3334 35.3889V39.9629C44.858 38.9198 45.7408 37.9568 45.7408 36.9938ZM5.61725 36.9938C5.61725 37.9568 6.50001 39 8.02466 39.8827V35.3087C7.14191 34.9074 6.33948 34.3457 5.61725 33.7037V36.9938ZM9.62964 40.6852C10.6728 41.1666 11.716 41.4877 12.8395 41.8087V37.0741C11.716 36.8333 10.6728 36.4322 9.62964 36.0309V40.6852ZM14.4445 42.2099C15.4074 42.4507 16.5308 42.6111 17.6543 42.7716V37.9568C16.5308 37.7963 15.4876 37.6359 14.4445 37.3951V42.2099ZM19.2593 43.0124C20.3024 43.0926 21.3456 43.2531 22.4691 43.2531V38.4383C21.4259 38.3581 20.3024 38.2778 19.2593 38.1975V43.0124ZM24.0741 43.3333C24.6358 43.3333 25.1173 43.3333 25.679 43.3333C26.2408 43.3333 26.7222 43.3333 27.2839 43.3333V38.5185C26.7222 38.5185 26.2408 38.5185 25.679 38.5185C25.1173 38.5185 24.6358 38.5185 24.0741 38.5185V43.3333ZM28.8889 43.3333C30.0123 43.2531 31.0556 43.1729 32.0987 43.0926V38.2778C31.0556 38.3581 29.9321 38.5185 28.8889 38.5185V43.3333ZM33.7037 42.8518C34.8271 42.6914 35.9506 42.4507 36.9136 42.2901V37.5555C35.8704 37.7963 34.8271 37.9568 33.7037 38.1173V42.8518ZM38.5185 41.8087C39.6419 41.4877 40.6852 41.1666 41.7284 40.6852V36.0309C40.6852 36.4322 39.6419 36.7531 38.5185 37.0741V41.8087ZM5.61725 30.5741C5.61725 33.6235 13.8827 36.9938 25.679 36.9938C37.4753 36.9938 45.7408 33.6235 45.7408 30.5741C45.7408 27.5247 37.4753 24.1544 25.679 24.1544C13.8827 24.1544 5.61725 27.5247 5.61725 30.5741ZM45.7408 27.3642V26.1605C45.2593 26.2407 44.7778 26.2407 44.2963 26.321C44.7778 26.642 45.2593 26.9629 45.7408 27.3642ZM20.6234 22.7099C20.1419 22.3889 19.6604 22.0679 19.179 21.6666V22.8703C19.7408 22.7901 20.1419 22.7901 20.6234 22.7099ZM21.8271 15.4877C20.1419 16.4507 19.2593 17.4938 19.2593 18.4568C19.2593 19.821 21.0247 21.3457 23.9938 22.4692C24.5556 22.4692 25.1173 22.4692 25.679 22.4692C31.2963 22.4692 37.1543 23.2716 41.3271 24.8766C49.753 24.6359 56.0123 22.6296 58.3395 20.3827C53.4445 21.9074 48.3889 22.6296 43.3334 22.5494C33.5432 22.5494 23.1111 20.0618 21.8271 15.4877ZM52.1604 25.037V29.7716C53.2839 29.4507 54.3271 29.1296 55.3704 28.6481V23.9938C54.3271 24.3951 53.2037 24.7963 52.1604 25.037ZM56.9753 23.2716V27.8457C58.5 26.8827 59.3827 25.9198 59.3827 24.9568V21.747C58.6604 22.3087 57.858 22.8703 56.9753 23.2716ZM59.3827 18.2161V13.5618C58.3395 13.9629 57.2963 14.284 56.1728 14.6049V19.3396C57.216 19.0185 58.3395 18.6975 59.3827 18.2161ZM54.5679 19.7407V15.0062C53.5247 15.247 52.4815 15.4074 51.358 15.5679V20.3827C52.4815 20.2222 53.5247 19.9815 54.5679 19.7407ZM49.753 20.5433V15.7284C48.7099 15.8087 47.5864 15.9692 46.5432 15.9692V20.784C47.6667 20.784 48.7099 20.7037 49.753 20.5433ZM44.9382 20.8642V16.0494C44.3765 16.0494 43.895 16.0494 43.3334 16.0494C42.7716 16.0494 42.2901 16.0494 41.7284 16.0494V20.8642C42.2901 20.8642 42.7716 20.8642 43.3334 20.8642C43.895 20.8642 44.3765 20.9444 44.9382 20.8642ZM40.1234 20.8642V16.0494C39.0802 15.9692 37.9567 15.8889 36.9136 15.8087V20.6235C37.9567 20.7037 39 20.784 40.1234 20.8642ZM35.3086 20.3827V15.5679C34.1852 15.4074 33.1419 15.247 32.0987 15.0062V19.7407C33.0617 19.9815 34.1852 20.2222 35.3086 20.3827ZM30.4938 19.3396V14.6049C29.3704 14.3642 28.3271 13.9629 27.2839 13.5618V18.2161C28.3271 18.6975 29.3704 19.0185 30.4938 19.3396ZM25.679 17.4136V12.8396C24.7963 12.4383 23.9938 11.8766 23.2715 11.2346V14.4444C23.2715 15.4877 24.0741 16.4507 25.679 17.4136ZM60.9876 17.4136C62.5123 16.4507 63.3951 15.4877 63.3951 14.5247V11.3148C62.6728 11.9568 61.8704 12.5185 60.9876 12.9198V17.4136ZM63.3951 8.10495C63.3951 5.05552 55.1297 1.68515 43.3334 1.68515C31.5371 1.68515 23.2715 5.05552 23.2715 8.10495C23.2715 11.1544 31.5371 14.5247 43.3334 14.5247C55.1297 14.5247 63.3951 11.074 63.3951 8.10495ZM60.5864 26.5618C59.1419 29.5309 53.6852 31.4568 47.3456 32.3396V35.9507C56.9753 35.3087 63.3951 32.3396 63.3951 29.6914C63.3951 28.6481 62.3519 27.605 60.5864 26.5618ZM60.9876 39.0803C62.5123 38.1173 63.3951 37.1544 63.3951 36.1914V32.9815C62.6728 33.6235 61.8704 34.1852 60.9876 34.5864V39.0803ZM56.1728 41.0062C57.2963 40.6852 58.3395 40.3642 59.3827 39.8827V35.2284C58.3395 35.6296 57.2963 35.9507 56.1728 36.2716V41.0062ZM51.358 42.0494C52.4815 41.8889 53.6049 41.6481 54.5679 41.4877V36.7531C53.5247 36.9938 52.4815 37.1544 51.358 37.3148V42.0494ZM49.753 37.3951C48.9506 37.4753 48.1482 37.5555 47.2654 37.6359C47.1852 38.1975 46.8641 38.7592 46.5432 39.321V42.5309C47.6667 42.4507 48.7099 42.3704 49.753 42.2901V37.3951ZM44.9382 40.7655C44.4567 41.0864 43.895 41.4074 43.3334 41.7285V42.5309C43.895 42.5309 44.3765 42.5309 44.9382 42.5309V40.7655ZM41.7284 47.4259V44.2161C41.0062 44.8581 40.2037 45.4198 39.321 45.821V50.3951C40.8456 49.3518 41.7284 48.3889 41.7284 47.4259ZM23.2715 48.9507C22.7099 48.9507 22.2284 48.9507 21.6667 48.9507C21.1049 48.9507 20.6234 48.9507 20.0617 48.9507V53.7655C20.6234 53.7655 21.1049 53.7655 21.6667 53.7655C22.2284 53.7655 22.7099 53.7655 23.2715 53.7655V48.9507ZM4.01228 45.7407C3.12964 45.3396 2.32709 44.7778 1.60487 44.1359V47.3457C1.60487 48.3087 2.48762 49.3518 4.01228 50.2346V45.7407Z" fill="#404040"/>
</svg>
