<svg width="65" height="64" viewBox="0 0 65 64" fill="none" xmlns="http://www.w3.org/2000/svg">
<path d="M2.44944 37.6524L8.51106 11.8903H6.34149C5.90371 11.8903 5.54885 11.5353 5.54885 11.0975C5.54885 10.6597 5.90371 10.3049 6.34149 10.3049H29.4419C29.7319 9.19564 30.5981 8.32947 31.7074 8.0394V0.792679C31.7074 0.354883 32.0622 0 32.5 0C32.9378 0 33.2927 0.354883 33.2927 0.792679V8.0394C34.4019 8.32947 35.2682 9.19564 35.5582 10.3049H58.6585C59.0963 10.3049 59.4512 10.6597 59.4512 11.0975C59.4512 11.5353 59.0963 11.8903 58.6585 11.8903H56.489L62.5506 37.6524H65V38.4451C65 41.6586 60.6482 44.1754 55.0915 44.1754C49.5348 44.1754 45.1829 41.6586 45.1829 38.4451V37.6524H47.6323L53.694 11.8903H35.5582C35.2682 12.9994 34.4019 13.8657 33.2927 14.1557V57.8658H38.8415C40.5925 57.8658 42.0122 59.2855 42.0122 61.0365H40.4268C40.4268 60.1609 39.7171 59.4512 38.8415 59.4512H26.1585C25.283 59.4512 24.5732 60.1609 24.5732 61.0365H22.9878C22.9878 59.2855 24.4075 57.8658 26.1585 57.8658H31.7074V14.1557C30.5981 13.8657 29.7319 12.9994 29.4419 11.8903H11.3061L17.3677 37.6524H19.8171V38.4451C19.8171 41.6586 15.4652 44.1754 9.90856 44.1754C4.35188 44.1754 1.46011e-07 41.6586 1.46011e-07 38.4451V37.6524H2.44944ZM4.07837 37.6524H15.7388L9.91651 12.9073C9.91651 12.9029 9.91293 12.8993 9.90856 12.8993C9.9042 12.8993 9.90062 12.9029 9.90062 12.9073L4.07837 37.6524ZM55.0835 12.9073L49.2613 37.6524H60.9216L55.0994 12.9073C55.0994 12.9029 55.0958 12.8993 55.0915 12.8993C55.0871 12.8993 55.0835 12.9029 55.0835 12.9073ZM55.0915 42.59C59.0604 42.59 62.488 41.1212 63.2561 39.2378H46.9269C47.6949 41.1212 51.1225 42.59 55.0915 42.59ZM32.5 12.6829C33.3756 12.6829 34.0854 11.9732 34.0854 11.0975C34.0854 10.2219 33.3756 9.51222 32.5 9.51222C31.6244 9.51222 30.9146 10.2219 30.9146 11.0975C30.9146 11.9732 31.6244 12.6829 32.5 12.6829ZM9.90856 42.59C13.8775 42.59 17.3051 41.1212 18.0732 39.2378H1.74397C2.512 41.1212 5.93963 42.59 9.90856 42.59Z" fill="#404040"/>
<path d="M51.5243 61.8292H13.4755V63.4145H51.5243V61.8292Z" fill="#404040"/>
</svg>
