<svg width="65" height="59" viewBox="0 0 65 59" fill="none" xmlns="http://www.w3.org/2000/svg">
<path d="M0.494054 42.2995L4.50014 40.8785V34.1933L1.27948 32.8309C0.902508 32.6718 0.725738 32.2372 0.884831 31.8602C0.98378 31.6258 1.1959 31.4585 1.44683 31.4171L6.73466 30.5436V23.9918L0.463717 21.4579C0.0842368 21.3047 -0.0991246 20.8729 0.0541111 20.4936C0.13371 20.2966 0.293854 20.1434 0.494054 20.0724L4.50014 18.6515V11.9663L1.27948 10.6037C0.902613 10.4443 0.726258 10.0096 0.885665 9.63276C0.965473 9.44438 1.11944 9.29731 1.31128 9.2265L26.1759 0.0459605C26.336 -0.0132104 26.5116 -0.0153124 26.6731 0.0400303L60.2358 11.7448C60.3059 11.7686 60.3718 11.8032 60.4314 11.847C60.527 11.9211 62.7771 13.6326 62.7771 18.8908C62.7862 20.0884 62.6488 21.2827 62.3681 22.4471C63.2417 23.188 64.9998 25.1884 64.9998 29.2633C65.015 32.1959 64.0759 35.0538 62.3244 37.4059C62.64 38.6174 62.7923 39.8658 62.7771 41.1178C62.7771 46.3322 60.4848 48.4527 60.387 48.5393C60.3219 48.5986 60.2466 48.6455 60.1647 48.6779L36.4559 58.0073C36.3694 58.0411 36.2774 58.0585 36.1848 58.0585C36.0895 58.0586 35.9951 58.0403 35.9069 58.0044L0.463717 43.685C0.0842368 43.5317 -0.0991246 43.0999 0.0541111 42.7206C0.13371 42.5236 0.293854 42.3704 0.494054 42.2995ZM8.2165 30.6674L36.2151 41.8238L59.669 32.5908V26.6554L36.453 35.7803C36.2767 35.8506 36.0802 35.8506 35.9039 35.7803L8.21797 24.5927L8.2165 30.6674ZM36.1839 56.5196L59.4705 47.3576C59.832 46.9546 61.2938 45.0793 61.2938 41.1178C61.3151 39.8807 61.147 38.6476 60.7952 37.4614C60.715 37.2095 60.7752 36.9339 60.953 36.7383C62.636 34.6113 63.5406 31.9725 63.5165 29.2604C63.5165 24.8558 61.2398 23.4295 61.1457 23.374C60.8492 23.2022 60.7092 22.8495 60.8071 22.5212C61.1423 21.3406 61.3055 20.1179 61.2916 18.8908C61.2916 14.9513 59.9202 13.3978 59.6105 13.0969L26.4405 1.52777L3.59841 9.96214C3.58805 9.96214 3.58805 9.97249 3.59841 9.97626L36.1839 23.1791L57.9161 14.6247C58.2969 14.4749 58.727 14.6621 58.8767 15.043C58.9107 15.1295 58.9281 15.2215 58.9281 15.3144V22.7235C58.9281 23.0275 58.7421 23.3009 58.4591 23.4125L36.453 32.0759C36.2767 32.1462 36.0802 32.1462 35.9039 32.0759L5.58263 19.8213L2.84865 20.8089C2.83903 20.8127 2.83903 20.8185 2.84865 20.823L36.1839 34.2926L60.1388 24.8787C60.5196 24.729 60.9497 24.9163 61.0994 25.297C61.1334 25.3835 61.1509 25.4755 61.1508 25.5685V33.096C61.1508 33.4002 60.9648 33.6734 60.6818 33.7851L36.4848 43.3101C36.3097 43.3794 36.1146 43.3794 35.9395 43.3101L7.39332 31.9373L4.23855 32.4559C4.22453 32.4559 4.2238 32.4648 4.23855 32.47L36.1839 45.4061L57.9161 36.8517C58.2969 36.7019 58.727 36.8892 58.8767 37.27C58.9107 37.3565 58.9281 37.4485 58.9281 37.5414V44.9505C58.9281 45.2546 58.7421 45.5279 58.4591 45.6395L36.453 54.3029C36.2767 54.3732 36.0802 54.3732 35.9039 54.3029L5.58263 42.0483L2.84865 43.0359C2.83903 43.0359 2.83903 43.0456 2.84865 43.0501L36.1839 56.5196ZM5.98187 18.3848L36.1839 30.5881L57.4478 22.216V16.3998L36.453 24.6668C36.2767 24.7371 36.0802 24.7371 35.9039 24.6668L5.98187 12.5738V18.3848ZM5.98187 40.6118L36.1839 52.8151L57.4478 44.443V38.6268L36.453 46.8938C36.2767 46.9641 36.0802 46.9641 35.9039 46.8938L5.98187 34.8008V40.6118Z" fill="#404040"/>
</svg>
