<svg width="65" height="59" viewBox="0 0 65 59" fill="none" xmlns="http://www.w3.org/2000/svg">
<path d="M56.3325 14.4559C55.0192 14.451 53.8745 13.5609 53.5462 12.2893H49.8325C48.6358 12.2893 47.6659 13.2594 47.6659 14.4559V22.7196C47.3451 22.6215 47.0201 22.5363 46.6893 22.4691C46.5565 22.0539 46.4004 21.6467 46.2214 21.2492V14.4559C46.2237 12.4626 47.8391 10.8473 49.8325 10.8448H53.5468C53.9485 9.30362 55.5235 8.37988 57.0647 8.78159C58.606 9.18319 59.5298 10.7582 59.1281 12.2995C58.7966 13.5715 57.6469 14.4583 56.3325 14.4559Z" fill="#404040"/>
<path d="M53.8995 36.8449H59.2215C60.4181 36.8449 61.3882 35.8748 61.3882 34.6783V30.2423C59.8433 29.8435 58.9144 28.2678 59.3132 26.7229C59.7121 25.1781 61.2878 24.2492 62.8326 24.648C64.3775 25.0469 65.3064 26.6226 64.9076 28.1674C64.6448 29.185 63.8502 29.9796 62.8326 30.2423V34.6783C62.8302 36.6717 61.2149 38.287 59.2215 38.2894H53.0386C53.365 37.8325 53.653 37.3494 53.8995 36.8449Z" fill="#404040"/>
<path d="M34.6658 5.68674V14.5072C34.1807 14.5432 33.6983 14.6095 33.2214 14.7058V5.68674C31.6766 5.28786 30.7476 3.71219 31.1464 2.16737C31.5454 0.622545 33.1211 -0.306437 34.6658 0.0924326C36.2107 0.491302 37.1397 2.06698 36.7408 3.6118C36.4781 4.62941 35.6835 5.424 34.6658 5.68674Z" fill="#404040"/>
<path d="M20.9437 18.7894C20.9437 17.5927 19.9737 16.6227 18.777 16.6227H14.4436C12.4502 16.6203 10.8349 15.0049 10.8325 13.0116V11.4646C9.28767 11.0656 8.35871 9.48995 8.75753 7.9451C9.15647 6.40035 10.7321 5.47131 12.277 5.87021C13.8218 6.26904 14.7508 7.84472 14.3519 9.38958C14.0892 10.4072 13.2946 11.2017 12.277 11.4646V13.0116C12.277 14.2081 13.247 15.1782 14.4436 15.1782H18.777C20.7703 15.1806 22.3857 16.7959 22.3881 18.7894V19.1346C21.888 19.3424 21.4051 19.5893 20.9437 19.8727V18.7894Z" fill="#404040"/>
<path d="M29.6104 52.8363V42.6227H31.0548V52.8363C32.5996 53.2353 33.5286 54.811 33.1298 56.3557C32.7308 57.9006 31.1551 58.8296 29.6104 58.4307C28.0655 58.0318 27.1366 56.4562 27.5354 54.9113C27.7981 53.8937 28.5928 53.0991 29.6104 52.8363Z" fill="#404040"/>
<path d="M41.8881 43.3449C41.8881 44.5415 42.8582 45.5115 44.0547 45.5115H48.3881C50.3816 45.514 51.9968 47.1292 51.9992 49.1226V50.6697C53.544 51.0686 54.4731 52.6442 54.0742 54.1891C53.6753 55.734 52.0997 56.6629 50.5548 56.264C49.01 55.8652 48.081 54.2895 48.4798 52.7446C48.7425 51.727 49.5372 50.9325 50.5548 50.6697V49.1226C50.5548 47.926 49.5848 46.956 48.3881 46.956H44.0547C42.0614 46.9537 40.4461 45.3383 40.4436 43.3449V42.6227H41.8881V43.3449Z" fill="#404040"/>
<path d="M2.88814 26.7338C4.20142 26.7387 5.34617 27.6289 5.67449 28.9004H11.8076C11.5029 29.3569 11.2411 29.8404 11.0254 30.3449H5.67524C5.27353 31.8862 3.69849 32.8099 2.15726 32.4082C0.616136 32.0066 -0.307708 30.4315 0.0938924 28.8903C0.425306 27.6188 1.57422 26.7322 2.88814 26.7338Z" fill="#404040"/>
<path d="M9.38811 46.2338C10.7014 46.2387 11.8461 47.1288 12.1745 48.4005H15.8882C17.0848 48.4005 18.0548 47.4305 18.0548 46.2338V42.5331C18.452 42.5897 18.8525 42.6197 19.2537 42.6227H19.4993V46.2338C19.4969 48.2272 17.8816 49.8425 15.8882 49.8449H12.1745C11.7727 51.3861 10.1978 52.3099 8.65658 51.9082C7.11536 51.5066 6.19162 49.9316 6.59322 48.3904C6.92464 47.1187 8.07397 46.2319 9.38811 46.2338Z" fill="#404040"/>
<path d="M51.1268 27.63C52.9362 29.9992 53.2602 33.1842 51.9653 35.8692C50.6686 38.5613 47.9911 40.317 45.0053 40.4329H44.959L42.8349 40.4546H19.2544C15.5606 40.4933 12.5349 37.5302 12.4962 33.8364C12.4605 30.4277 14.9942 27.5375 18.3784 27.1267C18.7526 25.0403 19.9397 23.1877 21.6788 21.9757C23.0456 21.0199 24.6738 20.509 26.3416 20.5126C26.8585 20.5121 27.3743 20.5604 27.882 20.657C29.6479 18.1187 32.5487 16.6104 35.6409 16.6227C36.3785 16.623 37.1136 16.7087 37.8314 16.8783C41.5116 17.7277 44.3169 20.7116 44.9381 24.4371C47.3743 24.5237 49.6443 25.6949 51.1268 27.63ZM44.66 25.8765C44.313 25.8765 43.9664 25.9036 43.6236 25.9574C43.6202 25.9581 43.6166 25.956 43.6158 25.9525C43.6157 25.952 43.6157 25.9514 43.6157 25.9509C43.6157 25.9118 43.6157 25.7754 43.6157 25.7241C43.5006 22.145 40.9911 19.0915 37.5021 18.2852C33.9487 17.4409 30.2735 19.1034 28.5616 22.3297C28.5591 22.3316 28.5556 22.3316 28.553 22.3297C26.5214 21.6234 24.2745 21.9321 22.5087 23.1603C20.7872 24.354 19.7422 26.3005 19.6986 28.3949C19.6986 28.4187 19.6986 28.5047 19.6986 28.5306C19.6986 28.535 19.6986 28.5371 19.6906 28.5365C19.5468 28.5196 19.402 28.5128 19.2573 28.5162C16.3593 28.4822 13.9824 30.8039 13.9484 33.702C13.9143 36.6 16.2362 38.9768 19.1341 39.0109C19.1752 39.0114 19.2162 39.0114 19.2573 39.0109H42.8205L44.9438 38.9892C47.3956 38.8925 49.5945 37.4525 50.6631 35.2437C51.7187 33.0464 51.4536 30.4428 49.977 28.5032C48.7125 26.845 46.7454 25.8732 44.66 25.8765Z" fill="#404040"/>
</svg>
