<svg width="65" height="65" viewBox="0 0 65 65" fill="none" xmlns="http://www.w3.org/2000/svg">
<path d="M2.6964 32.9814C2.95899 32.7188 2.95899 32.2811 2.6964 31.9311L0.595706 29.3927C-0.279542 28.2548 -0.104563 26.6793 0.945784 25.8041C1.0334 25.7165 1.12088 25.7165 1.20837 25.629L4.00934 23.7909C4.35941 23.6158 4.44703 23.1782 4.35941 22.828L3.13409 19.7646C2.60892 18.4516 3.30906 16.9636 4.622 16.4384C4.70961 16.4384 4.7971 16.3509 4.88459 16.3509L8.12324 15.4756C8.47331 15.3881 8.7359 15.038 8.7359 14.6003L8.5608 11.2742C8.47331 9.87376 9.52366 8.64831 11.0117 8.56083C11.0992 8.56083 11.1867 8.56083 11.2743 8.56083L14.6003 8.73592C15.038 8.73592 15.3881 8.47334 15.4757 8.12314L16.3509 4.88461C16.701 3.48419 18.1015 2.69639 19.502 3.0465C19.5895 3.0465 19.6771 3.13399 19.7645 3.13399L22.8281 4.35943C23.1782 4.53453 23.6159 4.35944 23.7908 4.00936L25.6289 1.20839C26.4167 -0.0170172 27.9922 -0.367129 29.2177 0.420632C29.3052 0.508157 29.3928 0.508157 29.4803 0.595694L32.0186 2.69639C32.2812 2.95901 32.8064 2.95901 33.069 2.69639L35.6072 0.595694C36.7452 -0.279603 38.3207 -0.104542 39.196 0.945806C39.2835 1.03333 39.2835 1.12087 39.3711 1.20839L41.2092 4.00936C41.3842 4.35944 41.8218 4.44692 42.1719 4.35943L45.2355 3.13399C46.5484 2.60885 48.0364 3.2216 48.5616 4.53453C48.5616 4.62202 48.6491 4.70951 48.6491 4.88461L49.5243 8.12314C49.612 8.47334 49.962 8.73592 50.3997 8.73592L53.7257 8.56083C55.1263 8.47334 56.3516 9.52368 56.4392 11.0116C56.4392 11.0992 56.4392 11.1867 56.4392 11.2742L56.2641 14.6003C56.2641 14.9504 56.5267 15.3881 56.8768 15.4756L60.1154 16.3509C61.5159 16.701 62.3036 18.1014 61.9535 19.502C61.9535 19.5895 61.8659 19.677 61.8659 19.7646L60.6406 22.828C60.4655 23.1782 60.6406 23.6158 60.9907 23.7909L63.7916 25.5415C65.017 26.3292 65.3671 27.9048 64.5794 29.1301C64.4918 29.2177 64.4918 29.3052 64.4043 29.3927L62.3036 31.9311C62.041 32.1936 62.041 32.7188 62.3036 32.9814L64.4043 35.5198C65.2796 36.6576 65.1045 38.2331 64.0542 39.1084C63.9667 39.196 63.8791 39.196 63.7916 39.2835L60.9907 41.1216C60.6406 41.2967 60.553 41.7343 60.6406 42.0845L61.8659 45.1479C62.3911 46.4608 61.691 47.9489 60.378 48.474C60.2904 48.474 60.2029 48.5615 60.1154 48.5615L56.8768 49.4369C56.5267 49.5244 56.2641 49.8745 56.2641 50.3121L56.4392 53.6383C56.5267 55.0387 55.4764 56.2641 53.9883 56.3516C53.9008 56.3516 53.8133 56.3516 53.7257 56.3516L50.3997 56.1765C50.0495 56.1765 49.612 56.4391 49.5243 56.7893L48.6491 60.0279C48.299 61.4283 46.8985 62.216 45.4981 61.866C45.4106 61.866 45.323 61.7785 45.2355 61.7785L42.1719 60.553C41.8218 60.3779 41.3842 60.553 41.2092 60.9031L39.3711 63.7041C38.5833 64.9295 37.0078 65.2796 35.7823 64.4918C35.6949 64.4043 35.6072 64.4043 35.6072 64.3167L33.069 62.216C32.8064 61.9534 32.2812 61.9534 32.0186 62.216L29.4803 64.3167C29.0426 64.6669 28.4299 64.9295 27.8173 64.9295C27.6422 64.9295 27.5547 64.9295 27.3796 64.9295C26.6793 64.8419 25.9791 64.4043 25.6289 63.7916L23.7908 60.9907C23.6159 60.6405 23.1782 60.553 22.8281 60.6405L19.7645 61.866C18.4516 62.3911 16.9636 61.6909 16.4384 60.3779C16.4384 60.2904 16.3509 60.203 16.3509 60.1153L15.4757 56.8768C15.3881 56.5267 15.038 56.2641 14.6003 56.2641L11.2743 56.4391C9.87373 56.5267 8.64841 55.4764 8.5608 53.9884C8.5608 53.9009 8.5608 53.8133 8.5608 53.7258L8.7359 50.3996C8.7359 50.0496 8.47331 49.6119 8.12324 49.5244L4.88459 48.6491C3.48416 48.2989 2.6964 46.8985 3.04648 45.4981C3.04648 45.4105 3.13409 45.323 3.13409 45.2355L4.35941 42.1719C4.53451 41.8219 4.35941 41.3842 4.00934 41.2091L1.20837 39.371C-0.0169549 38.5832 -0.367149 37.0077 0.420611 35.7824C0.420611 35.6948 2.6964 32.9814 2.6964 32.9814ZM4.88459 39.7212C5.93493 40.4213 6.37262 41.6468 5.84744 42.7846L4.622 45.8482C4.44702 46.2858 4.70961 46.7234 5.05969 46.8985H5.14717L8.38583 47.7738C9.61115 48.124 10.3989 49.1743 10.3114 50.3996L10.1363 53.7258C10.1363 54.1635 10.4865 54.601 10.9241 54.601H11.0117L14.3377 54.426C15.5632 54.3384 16.701 55.1262 16.9636 56.3516L17.839 59.5902C17.9264 60.0279 18.4516 60.2904 18.8893 60.203H18.9768L22.0403 58.9775C23.1782 58.5398 24.4911 58.9775 25.1914 59.9404L27.0295 62.7412C27.2921 63.0914 27.8172 63.2664 28.1673 63.0038C28.1673 63.0038 28.2548 63.0038 28.2548 62.9163L30.7932 60.8156C31.7561 60.0279 33.069 60.0279 34.0317 60.8156L36.5701 62.9163C36.9202 63.1789 37.4454 63.1789 37.7079 62.8288C37.7079 62.8288 37.7079 62.8288 37.7956 62.7412L39.6337 59.9404C40.3338 58.89 41.5593 58.4523 42.6971 58.9775L45.7606 60.203C46.1983 60.3779 46.6359 60.1153 46.811 59.7653V59.6778L47.6862 56.4391C48.0364 55.2138 49.0868 54.426 50.3121 54.5135L53.6382 54.6886C54.0759 54.6886 54.5135 54.3384 54.5135 53.9009V53.8133L54.3385 50.4872C54.2509 49.2618 55.0387 48.124 56.2641 47.8614L59.5026 46.986C59.7652 46.8985 59.9403 46.811 60.0278 46.5484C60.1154 46.3733 60.1154 46.1107 60.0278 45.8482L58.8025 42.7846C58.3648 41.6468 58.8025 40.3338 59.7652 39.7212L62.5662 37.8831C62.9163 37.6205 63.0914 37.0953 62.8288 36.7451C62.8288 36.7451 62.8288 36.6576 62.7413 36.6576L60.6406 34.1192C59.8528 33.1565 59.8528 31.8436 60.6406 30.8807L62.7413 28.3423C63.0039 27.9923 63.0039 27.4671 62.6537 27.2045C62.6537 27.2045 62.5662 27.2045 62.5662 27.117L59.7652 25.3664C58.7149 24.6661 58.2773 23.4408 58.8025 22.3028L60.0278 19.2394C60.1154 19.0643 60.1154 18.8017 60.0278 18.5391C59.9403 18.364 59.7652 18.1891 59.5026 18.1014L56.2641 17.2262C55.0387 16.8761 54.2509 15.8258 54.3385 14.6003L54.5135 11.2742C54.5135 11.0116 54.426 10.8366 54.2509 10.6615C54.0759 10.4864 53.8133 10.3989 53.6382 10.3989L50.3121 10.574C49.0868 10.6615 48.0364 9.87376 47.6862 8.64831L46.811 5.40978C46.7235 5.1472 46.6359 4.9721 46.3733 4.88461C46.1983 4.79712 45.9357 4.79712 45.6732 4.88461L42.6096 6.11006C41.4718 6.54762 40.1588 6.11005 39.546 5.1472L37.7956 2.34627C37.533 1.99615 37.0078 1.82109 36.6576 2.08368C36.6576 2.08368 36.5701 2.08368 36.5701 2.17122L34.0317 4.27195C33.069 5.05971 31.7561 5.05971 30.7932 4.27195L28.2548 2.17122C27.9047 1.90863 27.3796 1.90863 27.117 2.25874C27.117 2.25874 27.117 2.25874 27.0295 2.34627L25.1914 5.1472C24.4911 6.19754 23.2657 6.63523 22.1278 6.11006L19.0643 4.88461C18.6267 4.70951 18.189 4.9721 18.0139 5.3223V5.40978L17.1387 8.64831C16.7886 9.87376 15.7383 10.6615 14.5128 10.574L11.1867 10.3989C10.9241 10.3989 10.7491 10.4864 10.574 10.6615C10.3989 10.8366 10.3114 11.0992 10.3114 11.2742L10.4865 14.6003C10.574 15.8258 9.78625 16.9636 8.5608 17.2262L5.32227 18.1014C4.88458 18.1891 4.622 18.7142 4.70961 19.1518V19.2394L5.93493 22.3028C6.37262 23.4408 5.93493 24.7537 4.9722 25.3664L2.17123 27.117C1.82115 27.3796 1.64605 27.9048 1.90864 28.2548C1.90864 28.2548 1.90864 28.3423 1.99613 28.3423L4.09683 30.8807C4.88459 31.8436 4.88459 33.1565 4.09683 34.1192L1.99613 36.6576C1.55857 37.0077 1.64605 37.5329 2.08374 37.8831L4.88459 39.7212Z" fill="#404040"/>
<path d="M32.3687 10.5741C44.4477 10.5741 54.2509 20.3773 54.2509 32.4563C54.2509 44.5353 44.4477 54.3385 32.3687 54.3385C20.2897 54.3385 10.4865 44.5353 10.4865 32.4563C10.4865 20.3773 20.2897 10.5741 32.3687 10.5741ZM32.3687 52.588C43.4848 52.588 52.5004 43.5724 52.5004 32.4563C52.5004 21.3402 43.4848 12.3246 32.3687 12.3246C21.2525 12.3246 12.237 21.3402 12.237 32.4563C12.237 43.5724 21.2525 52.588 32.3687 52.588Z" fill="#404040"/>
<path d="M34.9946 37.3579L42.2595 30.093L43.4849 31.3184L34.9946 39.8087L20.3772 25.1913L21.6027 23.966L34.9946 37.3579Z" fill="#404040"/>
</svg>
