<svg width="65" height="69" viewBox="0 0 65 69" fill="none" xmlns="http://www.w3.org/2000/svg">
<path d="M3.71979 34.8469H3.73103C4.25353 34.851 4.92082 34.8679 5.70278 34.909L5.98552 31.8875C5.98552 31.8875 6.26763 31.8673 6.79257 31.8673C7.32077 31.8673 8.11347 31.8945 9.09527 31.9786L9.53177 26.9204C10.5005 26.7756 11.4796 26.7089 12.4589 26.7212C19.8192 26.7332 26.8508 29.77 31.9061 35.1193H32.225C37.2804 29.7702 44.312 26.7335 51.6722 26.7212C52.6516 26.7088 53.6306 26.7756 54.5993 26.9204L55.0357 31.9782C56.0179 31.8944 56.8104 31.867 57.3383 31.867C57.8631 31.867 58.1454 31.8872 58.1454 31.8872L58.4279 34.9087C59.2099 34.8676 59.8774 34.8507 60.3998 34.8466H60.4111C61.1619 34.8464 61.7893 35.4185 61.8583 36.166L64.0529 59.8622C64.1298 60.6629 63.5431 61.3742 62.7425 61.451C62.6966 61.4554 62.6505 61.4577 62.6045 61.4577C62.5886 61.4577 62.5727 61.4577 62.5567 61.4571C62.1146 61.4427 61.593 61.433 61.0004 61.433C55.6557 61.433 44.6135 62.2478 35.4715 68.2202C34.9928 68.5377 34.4319 68.7088 33.8574 68.7126H30.2346C29.6836 68.7093 29.1445 68.5517 28.6784 68.2574C19.0397 62.2512 8.20468 61.4333 3.01585 61.4333C2.47153 61.4333 1.98877 61.4422 1.5767 61.4553L1.53533 61.4559C0.728942 61.4579 0.0735421 60.8056 0.0717505 59.999C0.0715877 59.9528 0.0737041 59.9063 0.0779388 59.8602L2.27282 36.166C2.34204 35.4186 2.96911 34.8469 3.71979 34.8469ZM34.6371 66.9415C44.0076 60.8202 55.1768 59.9062 61.0008 59.9062C61.52 59.9062 62.0328 59.9138 62.5256 59.9285L60.3441 36.3745C59.8839 36.3789 59.2841 36.3946 58.5709 36.432L60.6142 58.2602C60.6142 58.2602 60.3676 58.2476 59.9118 58.2476C56.9286 58.2476 44.9856 58.7861 34.6058 66.89C34.5342 66.9461 34.3816 67.0428 34.391 67.0591C34.4795 67.0348 34.5627 66.9951 34.6371 66.9415ZM32.8416 66.3499C42.8345 58.0993 54.3679 56.8733 58.9378 56.7358L56.7536 33.4022C56.3206 33.414 55.784 33.4425 55.1666 33.4952L56.9732 54.4322C56.9732 54.4322 42.8805 56.1449 32.8292 66.1315V66.3439C32.8292 66.3529 32.8348 66.3555 32.8416 66.3498V66.3499ZM32.8416 64.022C41.1796 56.3822 51.5351 53.8489 55.3298 53.1494L53.1855 28.3005C52.7747 28.2712 52.2641 28.2486 51.6721 28.2486C44.6524 28.2593 37.9526 31.1855 33.1742 36.3276L32.8292 36.6921V64.0166C32.8292 64.0257 32.8349 64.028 32.8418 64.0218L32.8416 64.022ZM31.3021 36.6928L30.9568 36.3281C26.1784 31.1855 19.4786 28.2592 12.4588 28.2484C11.8667 28.2484 11.3561 28.2712 10.9454 28.3004L8.80129 53.1492C12.5956 53.8487 22.9516 56.3821 31.2896 64.0218C31.2964 64.028 31.3021 64.0257 31.3021 64.0163V36.6928ZM31.3021 66.3444V66.1319C21.2509 56.1453 7.15789 54.4325 7.15789 54.4325L8.96449 33.4954C8.34736 33.4426 7.81052 33.4141 7.37744 33.4024L5.19315 56.7358C9.76305 56.8731 21.2965 58.0989 31.2897 66.3498C31.2966 66.3555 31.3021 66.3529 31.3021 66.3439V66.3444ZM3.01634 59.9063C8.67359 59.9063 19.6352 60.8225 29.4869 66.9619C29.582 67.0273 29.6872 67.0764 29.7986 67.107C29.8154 67.0816 29.6297 66.9703 29.5454 66.9044C19.1604 58.7858 7.20349 58.248 4.21932 58.2481C3.76393 58.2481 3.51685 58.2607 3.51685 58.2607L5.56026 36.432C4.8472 36.3946 4.24718 36.3786 3.7869 36.3745L1.60553 59.9264C2.01434 59.9142 2.48717 59.906 3.01634 59.906V59.9063Z" fill="#404040"/>
<path d="M12.2815 9.16164C11.7095 7.14944 10.2998 5.48032 8.41161 4.57952C10.2992 3.67919 11.7087 2.01118 12.2815 0C12.8527 2.01209 14.2627 3.68073 16.1514 4.57952C14.262 5.47878 12.8519 7.14852 12.2815 9.16164ZM12.2805 3.33873C11.9479 3.78733 11.573 4.20291 11.1608 4.57975C11.573 4.95662 11.9479 5.37227 12.2805 5.82092C12.6131 5.37217 12.9882 4.95652 13.4004 4.57975C12.9882 4.203 12.6131 3.7874 12.2805 3.33873Z" fill="#404040"/>
<path d="M61.13 25.958C60.558 23.9457 59.1484 22.2767 57.2602 21.3758C59.1477 20.4756 60.5572 18.8077 61.13 16.7963C61.7013 18.8085 63.1114 20.4771 65 21.3758C63.1107 22.2751 61.7005 23.9448 61.13 25.958ZM61.1291 20.1352C60.7965 20.5838 60.4215 20.9993 60.0093 21.3762C60.4215 21.7529 60.7966 22.1685 61.1291 22.6173C61.4617 22.1685 61.8367 21.7529 62.2491 21.3762C61.8368 20.9993 61.4618 20.5838 61.1291 20.1352Z" fill="#404040"/>
<path d="M53.6138 9.16165C53.1371 7.48485 51.9623 6.09396 50.3889 5.34339C51.9618 4.59298 53.1364 3.20295 53.6138 1.52695C54.0899 3.20368 55.2649 4.59425 56.8387 5.34339C55.2643 6.09273 54.0892 7.48408 53.6138 9.16165ZM53.6131 4.72383C53.437 4.94068 53.249 5.14753 53.0498 5.34339C53.249 5.53936 53.437 5.74633 53.6131 5.96332C53.7891 5.74632 53.9772 5.53936 54.1764 5.34339C53.9772 5.14753 53.7891 4.94068 53.6131 4.72383Z" fill="#404040"/>
<path d="M3.22481 21.3771C2.74808 19.7004 1.57327 18.3094 -8.70575e-05 17.5589C1.57278 16.8085 2.74726 15.4184 3.22481 13.7425C3.70089 15.4192 4.87586 16.8098 6.44971 17.5589C4.87521 18.3083 3.70008 19.6995 3.22481 21.3771ZM3.224 16.9393C3.04793 17.1563 2.85998 17.3631 2.66078 17.5589C2.85998 17.7548 3.04793 17.9618 3.224 18.1788C3.40006 17.9618 3.58818 17.7548 3.78738 17.5589C3.58818 17.3631 3.40006 17.1563 3.224 16.9393Z" fill="#404040"/>
<path d="M32.0657 5.34429C31.644 5.34429 31.3021 5.00247 31.3021 4.58082V1.52694C31.3021 1.1053 31.644 0.763474 32.0657 0.763474C32.4874 0.763474 32.8292 1.1053 32.8292 1.52694V4.58082C32.8292 5.00247 32.4874 5.34429 32.0657 5.34429Z" fill="#404040"/>
<path d="M32.0657 28.2484C31.644 28.2484 31.3021 27.9066 31.3021 27.4849V19.8502C31.3021 19.4285 31.644 19.0868 32.0657 19.0868C32.4874 19.0868 32.8292 19.4285 32.8292 19.8502V27.4849C32.8292 27.9066 32.4874 28.2484 32.0657 28.2484Z" fill="#404040"/>
<path d="M32.0657 16.0329C31.644 16.0329 31.3021 15.6911 31.3021 15.2694V9.16166C31.3021 8.74 31.644 8.39819 32.0657 8.39819C32.4874 8.39819 32.8292 8.74 32.8292 9.16166V15.2694C32.8292 15.6911 32.4874 16.0329 32.0657 16.0329Z" fill="#404040"/>
<path d="M21.5599 12.4421C21.1478 12.532 20.741 12.271 20.6511 11.8591C20.6511 11.8588 20.6511 11.8587 20.6509 11.8585L19.6773 7.38216C19.5875 6.96996 19.8489 6.56311 20.2612 6.47348C20.6734 6.38385 21.0803 6.64526 21.1698 7.05746L22.1437 11.5338C22.2332 11.9458 21.972 12.3524 21.5599 12.4421Z" fill="#404040"/>
<path d="M23.8293 22.8868C23.4179 22.9767 23.0115 22.7159 22.9216 22.3045C22.9215 22.3039 22.9213 22.3034 22.9211 22.3027L21.6238 16.3344C21.5343 15.9223 21.7958 15.5156 22.2079 15.4259C22.6201 15.3363 23.027 15.5979 23.1166 16.0101L24.4139 21.9785C24.5033 22.3905 24.2419 22.7972 23.8298 22.8866C23.8296 22.8866 23.8295 22.8866 23.8293 22.8868Z" fill="#404040"/>
<path d="M16.0336 21.3771C15.7824 21.3776 15.5471 21.2543 15.4044 21.0476L10.1975 13.5097C9.95788 13.1626 10.0449 12.6869 10.3921 12.4473C10.7392 12.2076 11.2149 12.2947 11.4545 12.6419L16.6614 20.1799C16.901 20.5268 16.814 21.0024 16.4671 21.242C16.3396 21.3299 16.1884 21.3771 16.0337 21.3771H16.0336Z" fill="#404040"/>
<path d="M42.8318 14.8423L41.2102 22.3027C41.1206 22.715 40.7139 22.9764 40.3017 22.8868C39.8895 22.7974 39.6281 22.3907 39.7175 21.9785L41.3392 14.518C41.4288 14.1058 41.8355 13.8442 42.2476 13.9338C42.6598 14.0234 42.9214 14.4301 42.8318 14.8423Z" fill="#404040"/>
<path d="M43.8049 10.3663C43.7153 10.7785 43.3085 11.0399 42.8962 10.9503C42.484 10.8607 42.2226 10.4538 42.3122 10.0416L42.9617 7.05746C43.0513 6.64526 43.4581 6.38385 43.8704 6.47348C44.2826 6.56311 44.544 6.96996 44.4543 7.38216L43.8049 10.3663Z" fill="#404040"/>
<path d="M53.7396 12.4476C54.0863 12.6874 54.1734 13.1626 53.9342 13.5097L48.7273 21.0476C48.4877 21.3947 48.012 21.4819 47.6649 21.2423C47.3178 21.0027 47.2307 20.5269 47.4704 20.1798L52.6772 12.6419C52.9168 12.2949 53.3923 12.2078 53.7393 12.4474C53.7394 12.4475 53.7395 12.4476 53.7396 12.4476Z" fill="#404040"/>
</svg>
