<svg width="65" height="58" viewBox="0 0 65 58" fill="none" xmlns="http://www.w3.org/2000/svg">
<path d="M6.12225 22.0908C6.72605 22.0908 7.25433 22.1647 7.85814 22.3124L9.51869 17.3654C4.91464 15.0027 3.10322 9.46508 5.51844 4.96119C7.93366 0.457273 13.5943 -1.31476 18.1983 1.04795C20.6891 2.30314 22.5005 4.66586 23.1043 7.32391L29.7461 6.73323C29.8215 3.33683 32.6141 0.67877 36.0861 0.752613C39.5579 0.82644 42.275 3.55832 42.1996 6.95475C42.1996 8.20993 41.7467 9.39137 41.0674 10.425L49.3698 18.473C53.2944 15.1504 59.257 15.5196 62.6534 19.359C66.0498 23.1985 65.7479 29.0314 61.8232 32.354C60.0872 33.8307 57.8984 34.6428 55.6342 34.6428C55.4078 34.6428 55.1813 34.6428 54.9549 34.6428L52.9171 45.2751C56.238 46.2349 58.0494 49.6313 57.0682 52.88C56.087 56.1287 52.6152 57.9008 49.2942 56.9409C45.9733 55.9812 44.1619 52.5847 45.1431 49.3359C45.294 48.9669 45.445 48.5977 45.5959 48.2284L38.8785 44.9058C35.1804 49.8527 28.0856 50.8865 23.1043 47.2686C19.2551 44.4629 17.5945 39.6636 18.953 35.1596L11.632 31.2465C9.89594 34.126 6.12225 35.1596 3.10322 33.4615C0.15972 31.7633 -0.897017 28.0715 0.838879 25.1181C1.89562 23.2722 3.93341 22.0908 6.12225 22.0908ZM18.5002 15.5196C18.2738 13.083 16.0095 11.2371 13.5188 11.4586C11.3301 11.6802 9.5942 13.3784 9.36765 15.5196C12.0848 17.3654 15.7076 17.3654 18.5002 15.5196ZM16.0095 7.91459C16.0095 6.80706 15.1038 5.84721 13.8962 5.84721C12.6886 5.84721 11.7829 6.73323 11.7829 7.91459C11.7829 9.02212 12.6886 9.98205 13.8962 9.98205C15.0284 9.98205 16.0095 9.02212 16.0095 7.91459ZM13.8962 1.41712C9.51868 1.41712 5.97137 4.88737 5.97137 9.16975C5.97137 11.0895 6.72605 12.9354 8.00918 14.412C8.46195 12.7138 9.74507 11.2371 11.4056 10.4989C9.97146 9.16974 9.89594 6.95474 11.2546 5.47805C12.6132 4.07518 14.8774 4.00135 16.3869 5.33036C17.8964 6.65941 17.8964 8.87444 16.5378 10.3511C16.4624 10.425 16.3869 10.4989 16.3869 10.4989C18.0475 11.2371 19.3304 12.6399 19.7834 14.412C22.7269 11.2371 22.5005 6.36407 19.2551 3.4845C17.7454 2.15547 15.8586 1.41712 13.8962 1.41712ZM18.953 16.9963L25.0666 28.2931C30.4253 25.8565 36.6899 27.85 39.5579 32.8708L46.879 28.9575C45.5204 25.7826 46.1242 22.1647 48.313 19.5066L40.0108 11.3849C37.4445 13.5998 33.5198 13.3045 31.2556 10.7203C30.5763 9.98205 30.1235 9.09587 29.897 8.1361L23.2551 8.72678C23.2551 8.87444 23.2551 9.02212 23.2551 9.16975C23.3307 12.3448 21.6703 15.2982 18.953 16.9963ZM36.9918 5.99488C36.9918 5.4042 36.5388 4.96119 35.935 4.96119C35.3312 4.96119 34.8785 5.4042 34.8785 5.99488C34.8785 6.58556 35.3312 7.02857 35.935 7.02857C36.5388 6.95475 36.9918 6.51172 36.9918 5.99488ZM35.935 8.43144C34.6519 8.43144 33.5953 9.31749 33.3689 10.5727C34.954 11.6063 36.9163 11.6063 38.5013 10.5727C38.3503 9.39137 37.2937 8.50527 35.935 8.43144ZM35.935 2.15547C33.3689 2.15547 31.2556 4.22285 31.1801 6.73323C31.1801 7.69308 31.482 8.65294 32.0858 9.46509C32.4632 8.65294 33.067 7.91459 33.8972 7.47158C33.5198 7.02857 33.3689 6.51172 33.3689 5.92104C33.3689 4.51819 34.501 3.41067 35.935 3.41067C37.3692 3.41067 38.5013 4.51819 38.5013 5.92104C38.5013 6.51172 38.2747 7.02857 37.973 7.47158C38.8032 7.91459 39.407 8.5791 39.7844 9.46509C41.2938 7.39774 40.841 4.51819 38.8032 3.04149C37.973 2.45081 36.9918 2.15547 35.935 2.15547ZM63.4836 25.4134C63.4836 21.1311 59.9363 17.6609 55.5587 17.6609C51.1812 17.6609 47.6339 21.1311 47.6339 25.4134C47.6339 27.3332 48.3885 29.179 49.6717 30.6558C50.1244 28.9575 51.4076 27.4808 53.068 26.7425C51.6339 25.4134 51.5584 23.1985 52.9171 21.7218C54.2756 20.2451 56.5399 20.2451 58.0494 21.574C59.4834 22.9031 59.5589 25.1181 58.2004 26.5948C58.1249 26.6687 58.0494 26.7425 58.0494 26.7425C59.7099 27.4808 60.9929 28.8838 61.4458 30.6558C62.8043 29.179 63.4836 27.3332 63.4836 25.4134ZM57.672 24.1583C57.672 23.0507 56.7663 22.0908 55.5587 22.0908C54.3511 22.0908 53.4454 22.977 53.4454 24.1583C53.4454 25.2658 54.3511 26.2256 55.5587 26.2256C56.7663 26.2256 57.672 25.2658 57.672 24.1583ZM60.1627 31.7633C59.9363 29.3267 57.672 27.4808 55.1813 27.7024C52.9925 27.9239 51.2567 29.6221 51.0301 31.7633C53.7473 33.6092 57.4456 33.6092 60.1627 31.7633ZM53.6718 54.9474C53.4454 53.5446 52.1622 52.5847 50.7282 52.8061C49.5961 52.9539 48.6904 53.8399 48.5394 54.9474C50.0491 55.9073 52.0869 55.9073 53.6718 54.9474ZM52.0869 50.2958C52.0869 49.7051 51.6339 49.2621 51.0301 49.2621C50.4263 49.2621 49.9736 49.7051 49.9736 50.2958C49.9736 50.8865 50.4263 51.3296 51.0301 51.3296C51.6339 51.2557 52.0869 50.8126 52.0869 50.2958ZM47.2564 53.766C47.6339 52.9539 48.2377 52.2155 49.0679 51.7725C48.6904 51.3296 48.5394 50.8126 48.5394 50.2219C48.5394 48.8191 49.6717 47.7116 51.1057 47.7116C52.5397 47.7116 53.6718 48.8191 53.6718 50.2219C53.6718 50.8126 53.4454 51.3296 53.1435 51.7725C53.9737 52.2155 54.5775 52.88 54.9549 53.766C56.4644 51.6987 56.0116 48.8191 53.8983 47.3424C51.785 45.8657 48.8415 46.3087 47.3318 48.3762C46.0488 49.9266 46.0488 52.1417 47.2564 53.766ZM46.5016 46.9732C47.6339 45.718 49.2942 44.9797 51.0301 44.9797C51.1057 44.9797 51.2567 44.9797 51.332 44.9797L53.3699 34.3475C50.9546 33.7568 48.8415 32.2801 47.5583 30.2127L40.2372 34.126C41.5203 37.227 41.2938 40.6972 39.7089 43.5769L46.5016 46.9732ZM35.4823 46.0872C35.2557 42.9862 32.4632 40.6972 29.2932 40.9188C26.5007 41.1403 24.2364 43.3554 24.01 46.0872C27.4063 48.5238 32.0858 48.5238 35.4823 46.0872ZM32.4632 36.7841C32.4632 35.3074 31.2556 34.126 29.7461 34.126C28.2366 34.126 27.029 35.3074 27.029 36.7841C27.029 38.2608 28.2366 39.4421 29.7461 39.4421C31.2556 39.4421 32.4632 38.2608 32.4632 36.7841ZM22.6513 44.9797C23.1796 42.6909 24.8402 40.845 27.029 39.9589C25.2176 38.4822 24.991 35.8981 26.5007 34.126C28.0101 32.354 30.6518 32.1324 32.4632 33.6092C34.2747 35.0858 34.501 37.6701 32.9915 39.4421C32.8405 39.6636 32.6141 39.8112 32.4632 39.9589C34.6519 40.845 36.3125 42.6909 36.8407 44.9797C40.6146 41.1403 40.4636 35.0858 36.5388 31.3941C32.6141 27.7024 26.4252 27.85 22.6513 31.6894C19.0285 35.3813 19.0285 41.288 22.6513 44.9797ZM19.4815 33.7568C20.3872 31.7633 21.8967 30.1389 23.7081 28.9575L17.5945 17.6609C15.4812 18.5467 13.1415 18.6206 10.9527 17.9562L9.29214 22.9031C11.7829 24.3059 12.9905 27.1855 12.1603 29.8435L19.4815 33.7568ZM8.76385 32.0586C8.53746 30.6558 7.25434 29.6959 5.82034 29.9174C4.68825 30.0651 3.78254 30.951 3.63151 32.0586C5.14102 33.0185 7.17898 33.0185 8.76385 32.0586ZM7.17898 27.4069C7.17898 26.8162 6.72605 26.3733 6.12225 26.3733C5.51844 26.3733 5.06551 26.8162 5.06551 27.4069C5.06551 27.9976 5.51844 28.4407 6.12225 28.4407C6.72605 28.3668 7.17898 27.9239 7.17898 27.4069ZM2.34855 30.8773C2.72581 30.0651 3.32961 29.3267 4.15996 28.8838C3.78254 28.4407 3.63151 27.9239 3.63151 27.3332C3.63151 25.9304 4.76377 24.8227 6.19776 24.8227C7.63176 24.8227 8.76385 25.9304 8.76385 27.3332C8.76385 27.9239 8.53746 28.4407 8.23556 28.8838C9.06575 29.3267 9.66955 29.9913 10.047 30.8773C11.5565 28.8099 11.1035 25.9304 8.99039 24.4535C6.87692 22.977 3.93341 23.4199 2.4239 25.4873C1.14094 27.0379 1.14094 29.2528 2.34855 30.8773Z" fill="#404040"/>
</svg>
