<svg width="50" height="57" viewBox="0 0 50 57" fill="none" xmlns="http://www.w3.org/2000/svg">
<path d="M25.8333 7.49888V23.3285H30.8321V24.9947H19.1681V23.3285H24.1669V5.83267H36.7214C37.1815 2.18053 40.5151 -0.407091 44.1675 0.0529725C47.8195 0.513106 50.4071 3.84681 49.947 7.49888C49.4869 11.151 46.1533 13.7388 42.5011 13.2787C39.4806 12.8981 37.102 10.5194 36.7214 7.49888H25.8333ZM43.3291 11.6647C46.0898 11.6647 48.3278 9.42659 48.3278 6.66586C48.3278 3.90504 46.0898 1.667 43.3291 1.667C40.5683 1.667 38.3303 3.90504 38.3303 6.66586C38.3334 9.4252 40.5696 11.6614 43.3291 11.6647Z" fill="#404040"/>
<path d="M6.67091 43.3237C10.0275 43.3268 12.8581 45.8254 13.2777 49.1557H24.1667V33.3261H19.1679V31.6599H30.8319V33.3261H25.8331V50.8219H13.2785C12.8185 54.4741 9.48484 57.0616 5.8325 56.6016C2.18051 56.1415 -0.407225 52.8077 0.0530128 49.1557C0.473086 45.821 3.31015 43.3211 6.67091 43.3237ZM6.67091 54.9875C9.43164 54.9875 11.6697 52.7494 11.6697 49.9887C11.6697 47.228 9.43164 44.9899 6.67091 44.9899C3.91018 44.9899 1.67211 47.228 1.67211 49.9887C1.67541 52.7482 3.91157 54.9844 6.67091 54.9875Z" fill="#404040"/>
</svg>
