<svg width="65" height="66" viewBox="0 0 65 66" fill="none" xmlns="http://www.w3.org/2000/svg">
<path d="M15.7687 20.279C14.8088 21.2391 13.2524 21.2391 12.2924 20.2794C12.2922 20.2791 12.2922 20.2791 12.2921 20.279L8.81537 16.8023L25.6178 0L29.0945 3.47665C30.054 4.43657 30.054 5.99263 29.0945 6.95253L48.2148 26.0729C49.1747 25.1133 50.7308 25.1133 51.6907 26.0729L55.1673 29.5496L38.365 46.352L34.8883 42.8753C33.9282 41.9154 33.9282 40.3589 34.888 39.3989C34.8882 39.3988 34.8882 39.3987 34.8883 39.3987L27.6457 32.1569L5.5714 54.2312C4.32358 55.4792 2.30025 55.4796 1.0522 54.2316C1.05209 54.2315 1.05186 54.2314 1.05174 54.2312L0.93618 54.1156C-0.311872 52.8678 -0.312224 50.8444 0.935713 49.5964C0.935828 49.5962 0.935949 49.596 0.93618 49.5959L23.0113 27.5216L15.7687 20.279ZM27.9358 4.63527L25.6178 2.31722L11.1335 16.8023L13.4507 19.1196C13.7704 19.4398 14.2894 19.44 14.6095 19.1203C14.6097 19.12 14.6098 19.1198 14.6102 19.1196L15.7687 17.9609L27.3565 6.37321L27.9358 5.7939C28.2557 5.47393 28.2557 4.95524 27.9358 4.63527ZM36.0478 41.7166L38.365 44.0339L52.8501 29.5496L50.5321 27.2315C50.2121 26.9117 49.6934 26.9117 49.3734 27.2315L48.2148 28.3901L37.2056 39.3987L36.047 40.5597C35.7281 40.8795 35.7281 41.3969 36.047 41.7166H36.0478ZM36.0478 38.24L47.0554 27.2315L27.9358 8.11197L16.9273 19.1196L36.0478 38.24ZM2.09481 50.7554C1.48657 51.363 1.48623 52.3488 2.094 52.957C2.09424 52.9573 2.09458 52.9575 2.09481 52.9579L2.20945 53.0725C2.81746 53.6805 3.80326 53.6805 4.41115 53.0725L26.4888 30.9974L24.1699 28.6785L2.09481 50.7554Z" fill="#404040"/>
<path d="M61.8043 65.551H35.4201C33.6561 65.5486 32.2268 64.1193 32.2244 62.3553V62.1915C32.2268 60.4276 33.6561 58.9981 35.4201 58.9959H37.1408V54.899H60.0836V58.9959H61.8043C63.5683 58.9981 64.9977 60.4276 64.9999 62.1915V62.3553C64.9977 64.1193 63.5683 65.5486 61.8043 65.551ZM58.4449 56.5378H38.7796V58.9959H58.4449V56.5378ZM63.3612 62.1915C63.3612 61.3317 62.6641 60.6346 61.8043 60.6346H35.4201C34.5602 60.6346 33.8633 61.3317 33.8633 62.1915V62.3553C33.8633 63.2152 34.5602 63.9123 35.4201 63.9123H61.8043C62.6641 63.9123 63.3612 63.2152 63.3612 62.3553V62.1915Z" fill="#404040"/>
</svg>
