<svg width="65" height="67" viewBox="0 0 65 67" fill="none" xmlns="http://www.w3.org/2000/svg">
<path d="M30.8745 3.24993H31.6868V0.812482C31.6868 0.363767 32.0507 0 32.4994 0C32.9482 0 33.312 0.363767 33.312 0.812482V3.24993H34.1244C51.349 4.06241 64.9987 16.8183 64.9987 32.4993C65.0242 32.9226 64.7016 33.2864 64.2784 33.3117C64.2477 33.3136 64.2169 33.3136 64.1862 33.3117C63.763 33.3372 63.3992 33.0148 63.3737 32.5915C63.3719 32.5607 63.3719 32.53 63.3737 32.4993C63.3737 27.6244 58.9863 23.7245 53.624 23.7245C48.2617 23.7245 43.8742 27.6244 43.8742 32.4993C43.8742 32.948 43.5104 33.3117 43.0618 33.3117C42.613 33.3117 42.2492 32.948 42.2492 32.4993C42.1752 29.2459 40.2811 26.3097 37.3474 24.9009C36.0894 24.2836 34.7128 23.946 33.312 23.9113V55.9711C33.5697 56.2004 33.7176 56.5287 33.7181 56.8738V60.3853C33.6888 62.0926 34.9491 63.5483 36.643 63.7636C38.429 63.943 40.0223 62.6408 40.2017 60.855C40.2126 60.747 40.218 60.6385 40.218 60.53C40.2173 59.8569 40.7626 59.3108 41.4356 59.3101C41.5318 59.3099 41.6276 59.3214 41.7211 59.3437C42.2944 59.4995 42.6827 60.0324 42.6555 60.6258C42.5988 63.77 40.0041 66.2727 36.8599 66.2162C36.7164 66.2136 36.573 66.2055 36.4302 66.1921C33.4583 65.8382 31.2346 63.2951 31.2807 60.3024V56.8738C31.2813 56.5287 31.4291 56.2004 31.6868 55.9711V23.9089C30.5091 23.9418 29.3472 24.1916 28.2599 24.6459C25.0173 25.9254 22.8496 29.0149 22.7496 32.4993C22.7496 32.948 22.3858 33.3117 21.9371 33.3117C21.4885 33.3117 21.1247 32.948 21.1247 32.4993C21.1247 27.6244 16.7372 23.7245 11.3749 23.7245C6.01258 23.7245 1.62509 27.6244 1.62509 32.4993C1.62509 32.948 1.26127 33.3117 0.81269 33.3117C0.363939 33.3117 0.000121278 32.948 0.000121278 32.4993C0.000121278 16.8183 13.6498 4.06241 30.8745 3.24993ZM53.624 22.0995C57.0048 22.0657 60.2371 23.4863 62.4987 25.9994C62.5109 26.0133 62.5174 26.01 62.5125 25.9913C59.5551 15.044 49.3081 6.58841 36.4952 5.07721C40.2693 8.59931 43.021 16.9882 43.706 27.3953C43.706 27.4083 43.7125 27.4107 43.7197 27.3953C45.8883 24.0415 49.6306 22.0404 53.624 22.0995ZM27.6107 23.1558C29.0656 22.5438 30.6313 22.2396 32.2094 22.2621H32.8123C34.6409 22.233 36.4501 22.6419 38.0884 23.4548C39.6474 24.2476 40.9936 25.4021 42.0152 26.8217C42.0242 26.8338 42.0298 26.8314 42.0291 26.816C41.1101 14.9691 37.3979 5.63862 32.9674 4.94395H32.0314C27.5977 5.63862 23.887 14.9684 22.9698 26.8118C22.9698 26.8274 22.9755 26.8299 22.9845 26.8176C24.1702 25.204 25.7682 23.9392 27.6107 23.1558ZM11.3749 22.0995C15.3689 22.0413 19.1114 24.0441 21.2791 27.3994C21.2864 27.4107 21.2921 27.4091 21.2928 27.3994C21.9778 16.9915 24.7296 8.60256 28.5037 5.08045C15.6908 6.58841 5.44371 15.044 2.48636 25.993C2.48151 26.0116 2.48636 26.0149 2.50005 26.001C4.76148 23.4872 7.99373 22.0662 11.3749 22.0995Z" fill="#404040"/>
</svg>
