<svg width="65" height="51" viewBox="0 0 65 51" fill="none" xmlns="http://www.w3.org/2000/svg">
<path d="M56.3856 25.0603C53.7905 25.0603 51.6868 22.9565 51.6868 20.3615C51.6868 17.7664 53.7905 15.6627 56.3856 15.6627C58.9806 15.6627 61.0844 17.7664 61.0844 20.3615C61.0844 22.9565 58.9806 25.0603 56.3856 25.0603ZM56.3856 17.2289C54.6555 17.2289 53.253 18.6314 53.253 20.3615C53.253 22.0914 54.6555 23.494 56.3856 23.494C58.1155 23.494 59.5181 22.0914 59.5181 20.3615C59.5181 18.6314 58.1155 17.2289 56.3856 17.2289Z" fill="#404040"/>
<path d="M31.3253 15.6627H14.0964C13.2313 15.6627 12.5301 14.9614 12.5301 14.0964V1.5663C12.5301 0.701172 13.2313 0 14.0964 0H31.3253C32.1903 0 32.8916 0.701172 32.8916 1.5663V14.0964C32.8916 14.9614 32.1903 15.6627 31.3253 15.6627ZM31.3253 14.0964V8.97083H26.6414C26.3047 8.97061 26.0057 8.75524 25.899 8.43594L25.4518 7.09209C25.4463 7.07639 25.4393 7.07639 25.4361 7.09209L24.5646 11.8856C24.5021 12.2288 24.2201 12.4895 23.873 12.5247C23.8469 12.5262 23.8208 12.5262 23.7947 12.5247C23.4744 12.5249 23.1863 12.3301 23.0671 12.0328L21.0788 7.06146C21.0741 7.04974 21.0679 7.05052 21.0639 7.06146L20.2768 9.81971C20.1584 10.2358 19.7251 10.4769 19.3091 10.3584C19.1808 10.3218 19.0641 10.2531 18.9698 10.1588L17.0628 8.25186H14.0964V14.0964H31.3253ZM14.0964 1.5663V6.69186H17.3856C17.5932 6.69197 17.7923 6.77445 17.9393 6.92127L19.1249 8.10703C19.1267 8.11046 19.1309 8.11189 19.1343 8.11001C19.1357 8.10935 19.1367 8.10836 19.1374 8.10703L20.1915 4.41687C20.3088 4.00061 20.7414 3.75826 21.1578 3.87557C21.3919 3.94157 21.5821 4.11272 21.6724 4.33859L23.4994 8.90428C23.505 8.91832 23.5113 8.91755 23.5144 8.90428L24.447 3.77706C24.5095 3.42404 24.8038 3.15859 25.1613 3.13249C25.5191 3.10309 25.85 3.32454 25.9593 3.66661L27.2053 7.40298H31.3253V1.5663H14.0964Z" fill="#404040"/>
<path d="M3.91559 24.2771H39.9398V25.0133L43.6369 23.5128C47.1073 22.1042 51.0733 23.6559 52.6665 27.0455L53.2068 28.1928L63.4337 23.7635V10.9639C63.4337 10.5314 63.7843 10.1807 64.2169 10.1807C64.6494 10.1807 65 10.5314 65 10.9639V50.9037H63.4337V42.2892H39.9398V43.0723C39.9371 45.2339 38.1856 46.9855 36.0241 46.988H1.56619V50.9037H-2.04707e-06V28.1928C0.00254083 26.0313 1.75415 24.2798 3.91559 24.2771ZM39.9398 40.7229H63.4337V25.4698L39.9398 35.6506V40.7229ZM39.9398 33.9441L51.7651 28.8194L51.2451 27.7135C50.0058 25.0777 46.9216 23.8711 44.2227 24.9663L39.9398 26.7049V33.9441ZM1.56619 45.4217H36.0241C37.3216 45.4217 38.3735 44.37 38.3735 43.0723V25.8434H3.91559C2.61806 25.8434 1.56619 26.8953 1.56619 28.1928V45.4217Z" fill="#404040"/>
</svg>
