<svg width="65" height="23" viewBox="0 0 65 23" fill="none" xmlns="http://www.w3.org/2000/svg">
<path d="M1.90087e-06 8.39579H8.21329L10.9511 0L13.6888 8.39579H21.549H21.9021H29.7622L32.5 0L35.2378 8.39579H43.0978H43.4511H51.3112L54.0489 0L56.7867 8.39579H65L58.7035 13.993L61.1671 22.3888L54.0489 17.3513L46.9307 22.3888L49.3943 13.993L43.2744 8.55325L37.1545 13.993L39.6181 22.3888L32.5 17.3513L25.3817 22.3888L27.8455 13.993L21.7255 8.55325L15.6056 13.993L18.0693 22.3888L10.9511 17.3513L3.83293 22.3888L6.29653 13.993L1.90087e-06 8.39579Z" fill="#404040"/>
</svg>
