<svg width="40" height="76" viewBox="0 0 40 76" fill="none" xmlns="http://www.w3.org/2000/svg">
<path d="M11.6924 50.067V33.2578C7.7241 27.6495 5.80463 20.8473 6.25578 13.9918C6.3565 12.1842 7.90376 10.8007 9.71125 10.9014C11.5187 11.0023 12.9023 12.5494 12.8014 14.3569C12.8009 14.3683 12.8001 14.3796 12.7994 14.3909C12.4359 19.6139 13.8502 24.8063 16.812 29.1234H17.4483C18.2994 29.1501 19.1436 29.2846 19.9608 29.5238C20.1807 29.5789 20.3976 29.6452 20.6108 29.7219C28.2655 32.5054 33.5876 37.578 37.345 45.6765C38.0967 47.2857 37.5193 49.2026 36.0038 50.1287C34.9641 50.6874 33.7041 50.6439 32.7054 50.0147C32.1398 49.6448 31.695 49.1173 31.4264 48.4972C29.9189 45.0091 27.6299 41.9138 24.7365 39.4505V52.7091L26.7834 56.8534L36.5175 56.2162C38.3241 56.1032 39.8804 57.4761 39.9935 59.2826C40.1062 61.0845 38.7408 62.6381 36.9394 62.7579L25.0294 63.5388C25.0236 63.5391 24.9372 63.5419 24.9314 63.542C24.9189 63.5426 24.8245 63.5453 24.8118 63.5453C23.564 63.5495 22.4234 62.8405 21.8746 61.7199L17.6566 53.1853C17.6544 53.1811 17.6493 53.1794 17.6452 53.1814C17.6441 53.182 17.6432 53.1827 17.6424 53.1836L12.7713 58.942L13.6571 71.5039C13.7801 73.3034 12.4274 74.8647 10.6288 74.9991C10.5479 75.0058 10.466 75.0086 10.3845 75.0086C8.6674 75.0009 7.245 73.6738 7.11851 71.9614L6.13873 58.0718C6.07503 57.2187 6.35014 56.3747 6.90437 55.723L11.6924 50.067ZM8.82003 71.9035C8.87737 72.7173 9.57006 73.3384 10.3852 73.3071L10.4981 73.3027C11.3649 73.2403 12.0182 72.4891 11.9599 71.6222L11.0496 58.7164C11.0342 58.495 11.1055 58.2762 11.2491 58.1067L17.1897 51.0847C17.4931 50.7261 18.0299 50.6813 18.3885 50.9847C18.4776 51.06 18.55 51.1527 18.6017 51.2573L23.4192 61.0048C23.6801 61.5324 24.2242 61.8601 24.8125 61.844L24.9182 61.8411L36.8215 61.0607C37.69 60.9998 38.3446 60.2463 38.2836 59.3779C38.2232 58.5177 37.4831 57.8657 36.6222 57.9145L26.3279 58.5883C25.9843 58.6123 25.6608 58.4255 25.5096 58.1163L23.1232 53.2845C23.0653 53.1675 23.0352 53.0386 23.0352 52.9081V37.7479C23.0352 37.278 23.4161 36.8971 23.8857 36.8971C24.0583 36.8971 24.2266 36.9496 24.3687 37.0474C27.9898 39.541 30.8208 43.09 33.023 47.8967C33.386 48.6883 34.3218 49.036 35.1136 48.673C35.1731 48.6458 35.231 48.6148 35.2868 48.5803C35.9676 48.1221 36.2072 47.233 35.8491 46.4948C32.2913 38.7739 27.2628 33.9512 20.0296 31.3215C19.8526 31.257 19.7263 31.2224 19.5022 31.1627C18.8255 30.9631 18.1264 30.8496 17.4212 30.825H16.3698C16.0974 30.8255 15.8415 30.6954 15.6818 30.4749C12.321 25.7725 10.7017 20.0469 11.1017 14.2808C11.1569 13.4117 10.497 12.6623 9.62795 12.6071C8.75869 12.5519 8.00956 13.2117 7.95421 14.0808C7.95384 14.087 7.95348 14.0932 7.95312 14.0994C7.52102 20.6542 9.38695 27.1546 13.2297 32.4824C13.3359 32.6283 13.3932 32.8039 13.3936 32.9841V50.3784C13.3936 50.5798 13.3222 50.7745 13.1921 50.9282L8.20319 56.822C7.93715 57.1352 7.8054 57.5407 7.83607 57.9506L8.82003 71.9035Z" fill="#404040"/>
<path d="M0.11239 7.00951L0.792923 6.61819C0.875676 6.56827 0.917955 6.47147 0.898356 6.37671L0.728133 5.59059C0.709259 5.48949 0.752815 5.3869 0.838834 5.33037C0.927576 5.2856 1.03392 5.29342 1.11522 5.35072L1.72516 5.88077C1.79648 5.94924 1.905 5.96082 1.98884 5.90875L2.66938 5.51668C2.7534 5.46461 2.8621 5.47617 2.93306 5.54475C3.00383 5.60912 3.03051 5.70889 3.00111 5.79994L2.88878 6.14021L2.75195 6.57925C2.74215 6.62322 2.74215 6.66883 2.75195 6.7128C2.76066 6.7555 2.78352 6.79404 2.81655 6.82245L3.43502 7.39672C3.51106 7.46113 3.53411 7.56865 3.4911 7.65857C3.4519 7.74167 3.36824 7.79468 3.27623 7.79468L3.25645 7.79383L2.42112 7.72049L2.40097 7.71973C2.30933 7.71973 2.22585 7.77281 2.18701 7.85584L1.84003 8.61199C1.8012 8.69502 1.71772 8.7481 1.62607 8.7481L1.60593 8.74734C1.50702 8.73875 1.42482 8.66729 1.40268 8.5704L1.20287 7.75461C1.18219 7.66563 1.10941 7.59816 1.01904 7.58448L0.204033 7.43391C0.107126 7.41672 0.0285466 7.34518 0.00259564 7.25016C-0.0115594 7.15531 0.0314522 7.06098 0.11239 7.00951Z" fill="#404040"/>
<path d="M17.6967 8.94818L17.301 9.18892C17.2638 9.21427 17.2324 9.24736 17.2092 9.2859C17.1874 9.32374 17.1791 9.36773 17.1854 9.41094L17.2706 10.2462C17.2836 10.3451 17.2294 10.4408 17.1377 10.4803C17.047 10.5204 16.941 10.5 16.8715 10.4293L16.2913 9.83381C16.2218 9.76304 16.1156 9.74295 16.0251 9.78352L15.2594 10.1238C15.1691 10.1636 15.0635 10.1433 14.9941 10.0728C14.925 10.0018 14.9107 9.89403 14.9584 9.80735L15.3505 9.06216C15.3945 8.98195 15.3847 8.88303 15.3259 8.81292L14.8154 8.16888C14.7343 8.07029 14.7482 7.92449 14.8468 7.84334C14.8883 7.80915 14.9404 7.79051 14.9941 7.79051C15.0072 7.79051 15.0203 7.79162 15.0332 7.79383L15.8041 7.9409C15.8995 7.95656 15.9946 7.91148 16.0431 7.82767L16.4412 7.12758C16.4869 7.04983 16.5706 7.00203 16.6608 7.00194C16.776 7.00075 16.8742 7.08513 16.8905 7.19921L16.9969 7.99612C17.0054 8.09412 17.08 8.17348 17.1771 8.18845L17.9469 8.3357C18.0442 8.35058 18.1186 8.42986 18.1273 8.52779C18.1378 8.62306 18.0916 8.7156 18.0092 8.76434L17.6967 8.94818Z" fill="#404040"/>
<path d="M21.4557 28.0447C18.6368 28.0447 16.3517 25.7596 16.3517 22.9407C16.3517 20.1219 18.6368 17.8367 21.4557 17.8367C24.2746 17.8367 26.5597 20.1219 26.5597 22.9407C26.5597 25.7596 24.2746 28.0447 21.4557 28.0447ZM22.3798 19.6606C20.563 19.1555 18.6806 20.2188 18.1755 22.0357C18.0091 22.6342 18.0091 23.2667 18.1755 23.865C18.4882 25.0121 19.3843 25.9082 20.5313 26.2209C22.3482 26.7261 24.2306 25.663 24.7359 23.8461C24.9023 23.2476 24.9023 22.6148 24.7359 22.0161C24.423 20.8692 23.5269 19.9731 22.3798 19.6606Z" fill="#404040"/>
<path d="M5.72686 2.49841H7.52946C7.75158 2.49382 7.94758 2.35178 8.02108 2.14206L8.61069 0.389682C8.69235 0.166794 8.89851 0.0136651 9.13551 0C9.36254 0.0129392 9.56398 0.149935 9.65962 0.356345L10.25 2.10871C10.3098 2.32005 10.5029 2.46591 10.7225 2.466H10.7407H12.5433L12.562 2.46556C12.7817 2.46571 12.975 2.61183 13.0349 2.82345C13.0997 3.03314 13.0358 3.26131 12.8715 3.407L12.2489 3.95908L11.462 4.67263C11.3896 4.74498 11.3337 4.83202 11.298 4.92782C11.2655 5.02238 11.2655 5.12505 11.298 5.21959L11.8551 7.06979C11.9306 7.28756 11.8491 7.52881 11.6569 7.65599C11.4698 7.78605 11.2214 7.78605 11.0341 7.65599L9.46126 6.55012C9.2738 6.42109 9.02609 6.42109 8.83862 6.55012L7.26741 7.65599C7.08031 7.78605 6.83187 7.78605 6.64477 7.65599C6.45857 7.52542 6.37909 7.28901 6.44823 7.07244L7.00536 5.22215C7.06924 5.02213 7.00409 4.80345 6.84112 4.67101L5.39513 3.43754C5.16901 3.25193 5.13616 2.91814 5.32181 2.69202C5.42126 2.57062 5.56971 2.4997 5.72686 2.49841ZM8.71939 4.79307C9.00721 4.73752 9.3032 4.7383 9.59084 4.79538C9.60917 4.65339 9.64165 4.51362 9.68793 4.37813L9.69573 4.35541L9.70426 4.33262C9.74818 4.21478 9.80117 4.10056 9.86287 3.99099C9.59283 3.87484 9.34839 3.70613 9.14423 3.49462C8.94733 3.70159 8.71286 3.86931 8.45335 3.98886C8.59345 4.23709 8.68382 4.51026 8.71939 4.79307Z" fill="#404040"/>
</svg>
