<svg width="55" height="73" viewBox="0 0 55 73" fill="none" xmlns="http://www.w3.org/2000/svg">
<path d="M5.81145e-06 26.8604C-0.00553181 22.151 3.8076 18.3288 8.51699 18.3232C13.2265 18.3177 17.0486 22.1308 17.0543 26.8402C17.0592 31.0595 13.9778 34.6481 9.80617 35.281V55.8528C9.80617 63.6232 16.1055 69.9225 23.8759 69.9225C31.6465 69.9225 37.9457 63.6232 37.9457 55.8528V45.129C29.7637 44.458 23.4617 37.628 23.4497 29.4186C23.4503 29.0565 23.6053 28.7119 23.8759 28.4713V5.54264C23.8788 3.1891 25.7859 1.2819 28.1395 1.27907H28.704V1.11961C28.9103 0.465293 29.5103 0.0150238 30.1963 0H30.7292C31.9066 0 32.861 0.954433 32.861 2.13179C32.861 3.30914 31.9066 4.26357 30.7292 4.26357H30.1963C29.5607 4.24123 28.9882 3.87319 28.704 3.30426V2.9845H28.1395C26.7267 2.9845 25.5814 4.12978 25.5814 5.54264V28.4713C25.8517 28.7122 26.0067 29.0566 26.0078 29.4186C26.0078 36.7181 31.9252 42.6357 39.2248 42.6357C46.5243 42.6357 52.4419 36.7181 52.4419 29.4186C52.4425 29.0565 52.5975 28.7119 52.8683 28.4713V5.54264C52.8683 4.12978 51.7229 2.9845 50.3101 2.9845H49.7447V3.30426C49.4899 3.89877 48.8992 4.27858 48.2525 4.26357H47.7195C46.5422 4.26357 45.5877 3.30914 45.5877 2.13179C45.5877 0.954433 46.5422 0 47.7195 0H48.2525C48.9385 0.014771 49.5387 0.465136 49.7447 1.11961V1.27907H50.3101C52.6636 1.2819 54.5708 3.1891 54.5736 5.54264V28.4713C54.844 28.7122 54.999 29.0566 55 29.4186C54.9876 37.6278 48.6857 44.4577 40.5038 45.129V55.8528C40.5038 65.0361 33.0594 72.4807 23.8759 72.4807C14.6926 72.4807 7.24803 65.0361 7.24803 55.8528V35.281C3.08542 34.6469 0.00746956 31.0712 5.81145e-06 26.8604ZM8.14091 33.6626C8.39058 33.575 8.66277 33.575 8.91256 33.6626C12.6741 33.4495 15.5506 30.2274 15.3375 26.4659C15.1244 22.7044 11.9024 19.8279 8.14091 20.041C4.37942 20.254 1.50287 23.4761 1.71595 27.2376C1.91217 30.7015 4.67701 33.4663 8.14091 33.6626Z" fill="#404040"/>
<path d="M8.52716 22.1705C11.1174 22.1705 13.2172 24.2703 13.2172 26.8604C13.2172 29.4507 11.1174 31.5504 8.52716 31.5504C5.937 31.5504 3.83728 29.4507 3.83728 26.8604C3.84005 24.2715 5.93821 22.1733 8.52716 22.1705ZM8.52716 29.845C10.1754 29.845 11.5117 28.5087 11.5117 26.8604C11.5117 25.2121 10.1754 23.876 8.52716 23.876C6.87888 23.876 5.54274 25.2121 5.54274 26.8604C5.54274 28.5087 6.87888 29.845 8.52716 29.845Z" fill="#404040"/>
</svg>
