<svg width="65" height="58" viewBox="0 0 65 58" fill="none" xmlns="http://www.w3.org/2000/svg">
<path d="M29.8822 1.51685C30.711 0.0713189 32.5549 -0.428614 34.0004 0.400263C34.4652 0.666758 34.8505 1.05214 35.117 1.51685L64.5951 52.8093C65.4283 54.2525 64.9339 56.0978 63.4908 56.9309C63.033 57.1952 62.5139 57.3347 61.9853 57.3351H3.014C1.34755 57.3334 -0.00185214 55.9812 -0.000120528 54.3149C0.000351731 53.7863 0.139828 53.2671 0.404135 52.8093L29.8822 1.51685ZM3.014 55.8266H61.9838C62.8169 55.8248 63.491 55.1481 63.4893 54.3149C63.4888 54.0512 63.4191 53.7921 63.2872 53.5637L33.8084 2.27116C33.6754 2.03868 33.4827 1.84596 33.2502 1.71297C33.0227 1.57924 32.7636 1.50864 32.4996 1.50856C31.9582 1.51045 31.4589 1.80115 31.1902 2.27116L1.71056 53.5637C1.29387 54.2853 1.54118 55.2079 2.26263 55.6245C2.4912 55.7564 2.75016 55.8261 3.014 55.8266Z" fill="#404040"/>
<path d="M18.3775 33.0248L39.5818 24.3564L44.0103 34.2905L36.889 37.2429L36.3986 37.439V38.6707C36.4003 40.3198 37.7365 41.6564 39.3856 41.6585H45.681V36.5488H47.1897V48.9458H45.681V43.167H39.3856C36.9037 43.1642 34.8926 41.1527 34.89 38.6707V38.0424L34.3989 38.2392L27.9519 40.8001L26.0065 39.2205L21.7463 41.0309L16.7031 37.0625L21.0554 35.198L18.3775 33.0248ZM28.2167 39.0719L33.8385 36.8385L36.3111 35.8489L42.0038 33.4901L38.8018 26.3062L21.3065 33.4577L28.2167 39.0719ZM19.6328 37.4502L21.9779 39.2945L24.682 38.1443L22.3783 36.2735L19.6328 37.4502Z" fill="#404040"/>
<path d="M35.6442 31.1918C36.5004 31.191 37.1951 31.8843 37.1959 32.7403C37.1967 33.5964 36.5034 34.2911 35.6474 34.292C34.7918 34.2928 34.0974 33.6005 34.0957 32.7449C34.0962 31.889 34.7885 31.1948 35.6442 31.1918Z" fill="#404040"/>
</svg>
