<svg width="65" height="60" viewBox="0 0 65 60" fill="none" xmlns="http://www.w3.org/2000/svg">
<path d="M1.60249e-06 35.3567L5.25083 23.7L17.9722 24.8058L27.9559 51.5523C27.9694 51.5879 27.9757 51.5864 27.9709 51.5483L22.8803 13.2182L36.3954 0L49.9099 13.2182L44.8621 51.2293C44.8574 51.2649 44.8621 51.2666 44.8772 51.2331L51.8888 33.2243L61.2874 32.4276L65 40.7187L49.7448 59.3931L44.0001 57.7343V57.7398H29.1489L21.8707 59.4831L1.60249e-06 35.3567ZM60.2896 34.0716L53.0177 34.6881C53.0018 34.6881 53.0129 34.6998 53.0129 34.6998L56.731 39.8443L63.137 40.5106C63.137 40.5106 63.1759 40.52 63.1608 40.4819C63.1457 40.4438 60.2896 34.0716 60.2896 34.0716ZM61.9613 41.9495L56.7167 41.406L47.3499 57.0845L49.1685 57.6093L61.9613 41.9495ZM45.7838 56.6262L55.3466 40.6193L52.3301 36.4486L44.605 56.2908L45.7838 56.6262ZM1.92171 34.9709L11.2496 33.9272L16.6935 26.265C16.6957 26.2613 16.6944 26.2565 16.6906 26.2544C16.6895 26.2539 16.6883 26.2534 16.6871 26.2534L6.24471 25.3455L1.91375 34.9599C1.91206 34.9639 1.91393 34.9685 1.91782 34.9702C1.91901 34.9707 1.92035 34.9709 1.92171 34.9709ZM37.1893 56.1867H42.6031L47.9897 15.6263L37.1893 20.3811V56.1867ZM35.5858 2.98346L24.5743 13.758C24.5709 13.7606 24.57 13.7654 24.5727 13.7689C24.5732 13.7696 24.5737 13.7699 24.5743 13.7704L35.6017 18.6727V2.98658C35.6009 2.98191 35.5963 2.97889 35.5916 2.97974C35.5892 2.9802 35.5872 2.98152 35.5858 2.98346ZM37.1878 2.9889V18.675L48.2517 13.8077C48.2552 13.8045 48.2554 13.799 48.252 13.7956C48.2518 13.7956 48.2518 13.7954 48.2517 13.7952L37.2029 2.98268C37.1997 2.97967 37.1946 2.97967 37.1917 2.98277C37.19 2.98441 37.1892 2.98664 37.1893 2.9889H37.1878ZM35.6002 56.1867V20.3788L24.7902 15.5728L30.188 56.1859L35.6002 56.1867ZM17.4515 27.9377L17.1697 28.3159L12.6952 34.6152L26.3143 56.8187L28.0741 56.3988L17.4515 27.9377ZM24.7006 57.2079L11.3702 35.4771L3.44817 36.3624L3.0807 36.4144L22.4231 57.7537L24.7006 57.2079Z" fill="#404040"/>
</svg>
